<svg id="Layer_1" data-name="Layer 1" xmlns="http://www.w3.org/2000/svg" viewBox="0 0 996 80.04"><defs><style>.cls-1{fill:#282828;}</style></defs><title>AtF - logo - clipped - very-dark-grey</title><path class="cls-1" d="M67.81,8.52H23.12L0,82H90.83ZM32.43,75.92l10.82-39.5,10.68,39.5Z" transform="translate(0 -1.96)"/><path class="cls-1" d="M939,82c-.12-1.24-.2-2.55-.2-3.94V76.84c0-12.81,4.88-18.91,14-18.91s13.88,6.71,13.88,18.75V77.9a40.7,40.7,0,0,1-.21,4.1H996V3.18H966v45.6c-4.42-8.09-11.9-13.12-24.4-13.12-18.15,0-33.25,13.88-33.25,41.63v1.22c0,1.2,0,2.35.09,3.49Z" transform="translate(0 -1.96)"/><path class="cls-1" d="M846.05,82c-.12-1.33-.19-2.74-.19-4.25V76.53c0-12.5,5-18.76,14.18-18.76,9.3,0,13.73,6.71,13.73,19.22v1.07c0,1.39-.07,2.69-.18,3.94h30.5c.11-1.34.18-2.7.18-4.1V76.68c0-25.62-19.37-41-44.23-41-25.16,0-44.53,15.86-44.53,41.79v1.22c0,1.13,0,2.24.12,3.33Z" transform="translate(0 -1.96)"/><path class="cls-1" d="M753.4,82c-.12-1.33-.19-2.74-.19-4.25V76.53c0-12.5,5-18.76,14.18-18.76,9.31,0,13.73,6.71,13.73,19.22v1.07c0,1.39-.07,2.69-.18,3.94h30.5c.11-1.34.18-2.7.18-4.1V76.68c0-25.62-19.37-41-44.23-41-25.16,0-44.53,15.86-44.53,41.79v1.22c0,1.13,0,2.24.13,3.33Z" transform="translate(0 -1.96)"/><rect class="cls-1" x="689.16" y="1.22" width="29.89" height="78.82"/><path class="cls-1" d="M638.69,82h30V57.93h15.41V37.8H668.73V32c0-4.42,2.59-7.78,8.54-7.78a21.39,21.39,0,0,1,6.87.92V3.49A49.4,49.4,0,0,0,671.48,2c-19.52,0-32.79,9.3-32.79,29.89V37.8h-9.76V57.93h9.76Z" transform="translate(0 -1.96)"/><path class="cls-1" d="M563,35.51c-24.4,0-44.23,16-44.23,41.94v1.22c0,1.13,0,2.24.12,3.33h85.59V77C604.47,48.32,585.4,35.51,563,35.51ZM549.26,68.6c1.22-9,6.41-13.72,13.73-13.72,8.08,0,12.2,5.18,12.5,13.72Z" transform="translate(0 -1.96)"/><path class="cls-1" d="M462.71,82V73.48c0-9.45,4.42-13.88,11.9-13.88,7.16,0,10.06,4.12,10.06,12.2V82h30V65.09c0-19.82-10.52-29.43-25.62-29.43-13.42,0-22,6.56-26.38,15V3.18h-30V82Z" transform="translate(0 -1.96)"/><polygon class="cls-1" points="383.04 80.04 413.08 80.04 413.08 55.97 428.33 55.97 428.33 35.84 413.08 35.84 413.08 19.52 383.04 19.52 383.04 35.84 373.74 35.84 373.74 55.97 383.04 55.97 383.04 80.04"/><path class="cls-1" d="M317.89,82V80.8c0-11.44,9-16.93,25.62-16V36.73c-11.89-.15-20.58,4.88-25.62,17.23V37.8h-30V82Z" transform="translate(0 -1.96)"/><path class="cls-1" d="M242.71,35.51c-24.4,0-44.22,16-44.22,41.94v1.22c0,1.13,0,2.24.11,3.33h85.59V77C284.19,48.32,265.13,35.51,242.71,35.51ZM229,68.6c1.22-9,6.4-13.72,13.72-13.72,8.09,0,12.2,5.18,12.51,13.72Z" transform="translate(0 -1.96)"/><polygon class="cls-1" points="154.74 80.04 184.78 80.04 184.78 55.97 200.03 55.97 200.03 35.84 184.78 35.84 184.78 19.52 154.74 19.52 154.74 35.84 145.44 35.84 145.44 55.97 154.74 55.97 154.74 80.04"/><path class="cls-1" d="M96.25,82h30V57.93h15.56V37.8H126.29V32c0-4.42,2.6-7.78,8.54-7.78a28.19,28.19,0,0,1,7.17.92V3.64A46,46,0,0,0,129,2c-19.37,0-32.79,9.3-32.79,29.89V37.8H86.49V57.93h9.76Z" transform="translate(0 -1.96)"/></svg>