<?xml version="1.0" encoding="UTF-8" standalone="no"?><!DOCTYPE svg PUBLIC "-//W3C//DTD SVG 1.1//EN" "http://www.w3.org/Graphics/SVG/1.1/DTD/svg11.dtd"><svg width="100%" height="100%" viewBox="0 0 142 54" version="1.1" xmlns="http://www.w3.org/2000/svg" xmlns:xlink="http://www.w3.org/1999/xlink" xml:space="preserve" xmlns:serif="http://www.serif.com/" style="fill-rule:evenodd;clip-rule:evenodd;stroke-linejoin:round;stroke-miterlimit:2;"><path d="M17,53.8c-0.8,0 -1.7,-0.1 -2.5,-0.2c-4,-0.7 -7.2,-2.9 -9.4,-6.1c-2.8,-4.3 -3.6,-10.6 -2.6,-18.3c-0.6,-0.1 -1.2,-0.4 -1.7,-0.9c-1.2,-1.2 -1.1,-3.1 0,-4.2c1.3,-1.2 2.4,-2.4 3.5,-3.6c4,-13.3 11.2,-19.5 11.6,-19.8c0.7,-0.6 1.6,-0.8 2.5,-0.7c0.9,0.2 1.7,0.7 2.1,1.5c2.8,5.3 -5,15.5 -10.7,21.7c-0.1,0.2 -0.1,0.5 -0.2,0.7c-0.5,2.1 -0.9,4.1 -1.2,6c1.3,-3 4.8,-9.2 11.8,-10.5c1.9,-0.4 3.8,-0.3 5.6,0.1c2.7,-0.8 5.6,-1.3 8.6,-1.3c8.9,0 13.3,1.2 14.2,4c0.2,0.7 0.2,1.4 0,2.1c-3.3,8.5 -7.1,20.2 -2.3,22.8c1.1,0.6 2.2,0.7 3.6,0.3c3.9,-1.2 8.1,-6.1 10.5,-9.9l0,-1.1c0.2,-3.8 2.4,-12.7 5.2,-15.2c1.5,-1.3 3.2,-1.1 4.3,-0.3c1.9,1.4 1.6,4 0.3,8.4c-0.9,3.2 -2.2,6.5 -3.4,9c-0.1,0.3 -0.3,0.6 -0.4,0.9c0,5.2 1.3,7.2 4.5,7.6c2.6,0.3 6.1,-2.3 9.6,-6.6c-0.9,-6.7 0.6,-14 1.6,-17.8c1.5,-5.7 3.8,-11.1 6.4,-15.3c2.9,-4.7 5.6,-7 8.2,-7c1.4,0 2.6,0.7 3.4,1.9c2.9,4.4 -0.7,16.3 -3.3,22.7c-2.5,6 -6.1,12.3 -9.8,17.2c0.8,2.8 2.2,4.2 2.8,4.8c1.6,1.3 3.6,1.5 5.4,0.7c3.3,-1.8 7.8,-5.3 11.9,-9.7c-0.8,-5.1 -0.3,-10.5 0.9,-14.9c1.4,-5.2 3.6,-10.6 5.9,-14.7c3,-5.3 5.8,-7.9 8.7,-7.9c1.3,0 2.5,0.6 3.3,1.7c0.7,1 3,4.1 -2.3,20.4c1.8,-1.1 3.9,-1.9 6.6,-1.9c3.9,0 7.1,1.5 9.2,4.3c2.6,3.5 3.1,8.8 1.3,14.5c-2.4,7.8 -10.1,15.3 -18.8,14.6c-4.6,-0.4 -8.4,-2.6 -11.1,-6.3c-0.7,-1 -1.3,-2.1 -1.8,-3.2c-3.9,3.7 -7.8,6.7 -11,8.4l-0.1,0c-3.9,1.8 -8.5,1.3 -11.9,-1.5c-1.5,-1.2 -2.6,-2.7 -3.5,-4.3c-4.4,4.4 -8.6,6.4 -12.4,5.8c-4.9,-0.6 -7.3,-3.5 -8.5,-6.7c-2.8,3.1 -6.2,6 -9.9,7.1c-2.9,0.9 -5.8,0.6 -8.3,-0.8c-8.8,-5 -4.5,-19 -1.3,-27.6c-1.4,-0.3 -3.7,-0.5 -7.6,-0.5c-0.6,0 -1.2,0 -1.8,0.1c2.1,3.2 2.8,7.5 1.8,12.5c-1,5.8 -4.2,10.9 -8.7,14c-2.7,2 -5.8,3 -8.8,3Zm-8.9,-19.8c-0.2,4.3 0.5,7.8 2,10.2c1.2,1.9 3,3.1 5.4,3.5c2.9,0.5 5.3,-0.6 6.9,-1.7c3.2,-2.2 5.5,-6 6.2,-10.2c0.8,-3.9 0.2,-7.1 -1.6,-8.9c-0.4,-0.4 -0.8,-0.7 -1.2,-0.9c-7.6,2.9 -12.9,8.5 -13,8.6c-1,1 -2.5,1.2 -3.7,0.5c-0.4,-0.3 -0.8,-0.7 -1,-1.1Zm105.5,5.3c0.5,1.7 1.2,3.3 2.1,4.6c1.6,2.3 3.8,3.6 6.7,3.8c5.6,0.5 10.9,-5 12.6,-10.4c1.2,-3.8 1,-7.2 -0.4,-9.1c-0.9,-1.2 -2.4,-1.9 -4.4,-1.9c-4.7,0 -7.1,5.4 -7.1,5.5c-0.6,1.5 -2.4,2.2 -3.9,1.6c-0.2,-0.1 -0.5,-0.2 -0.7,-0.4c-1.5,2.2 -3.2,4.3 -4.9,6.3Zm-18.4,-31.4c-2.1,2.7 -5.2,8.1 -7.3,16c-0.8,3 -1.3,5.6 -1.5,7.9c1.8,-3.1 3.5,-6.3 4.9,-9.5c2.5,-6.3 3.6,-11.3 3.9,-14.4Zm25.7,0.2c-2.1,2.9 -5.1,8.6 -7.1,16.2c-0.5,1.9 -0.9,4.1 -1,6.4c2.1,-3 3.7,-6.1 4.8,-9.1c2,-6.3 3,-10.8 3.3,-13.5Z" style="fill-rule:nonzero;"/></svg>