<?xml version="1.0" encoding="utf-8"?>
<!-- Generator: Adobe Illustrator 23.0.6, SVG Export Plug-In . SVG Version: 6.00 Build 0)  -->
<svg version="1.1" id="Layer_1" xmlns="http://www.w3.org/2000/svg" xmlns:xlink="http://www.w3.org/1999/xlink" x="0px" y="0px"
	 viewBox="0 0 500 189.1" style="enable-background:new 0 0 500 189.1;" xml:space="preserve">
<style type="text/css">
	.st0{fill-rule:evenodd;clip-rule:evenodd;}
</style>
<path class="st0" d="M250.1,0C111.9,0,0,42.4,0,94.6c0,52.2,111.9,94.5,250.1,94.5c138,0,249.9-42.2,249.9-94.5
	C500,42.4,388.1,0,250.1,0z M250.1,179.5c-132.5,0-240.2-37.7-240.2-84.8c0-46.9,107.7-85.1,240.2-85.1
	c132.9,0,240.4,38.2,240.4,85.1C490.5,141.7,382.9,179.5,250.1,179.5z"/>
<g>
	<path class="st0" d="M229.9,71.8c1-1,2.6-3.9,2.3-5.8c-0.2-1-0.6-2.1-1.8-1.9c-2.4,0.5-3.9,1.6-4.5,4c-0.8,2.6-0.5,4.4,0,6.3
		C225.9,74.3,227.5,74.5,229.9,71.8z"/>
	<path class="st0" d="M344.6,96.9c-5.6-0.6-12.7,4.2-18.5,11.3c-2.9,3.5-6,10.3-6.4,14.3c-0.6,4,0.5,8.1,1.9,9.2
		c1.5,1.1,7.9,4.5,17.9-5.6c5.6-5.6,11.1-14.8,11.1-14.8l-1.8-0.5C352.1,104.5,351.5,97.7,344.6,96.9z"/>
	<path class="st0" d="M228.2,41.8c-0.2,0-0.4,0-0.6,0.1c0.5,0.1,1.1,0.3,1.6,0.4C228.8,41.9,228.4,41.8,228.2,41.8z"/>
	<path class="st0" d="M250.1,16.6c-128.7,0-232.7,35-232.7,78c0,43.2,104,78.2,232.7,78.2c128.5,0,232.8-35,232.8-78.2
		C482.9,51.6,378.6,16.6,250.1,16.6z M136.1,142.7c-14,0-26.4-9.2-26.8-25.6c-0.2-10,7.9-22.3,22.9-26c1.8,0,2.4,0.6,2.4,1.6
		c0,0.6-0.6,1.5-2.1,2.1c-4.4,1.6-11.9,10.2-11.9,18.1c0,6,3.7,12.6,10,14c1.8,0.5,3.4,0.3,5,0.3c15.6,0,33.2-17.6,52.2-44.3
		c-3.1,0.2-16.1,1.6-19.3,5.3c-1.5,1.1-2.4,0.5-2.7-0.8c0-0.3,0.5-1.5,1-2.1c5.2-5.8,20.6-7.1,24.3-7.6
		c13.9-21.3,31.6-34.9,36.5-35.9c-0.1,0-0.2-0.1-0.4-0.1c-12.4-2.9-23.7-5.3-32.6-5.3c-31.1,0-45,13.4-44.3,25.6
		c0.3,5,4.4,8.2,10.3,7.1c6.5-1.1,15.5-7.3,17.7-12.6c0.5-1.1,1.8-1.3,2.3-1c1,0.8,0.6,1.9,0.6,1.9c-0.8,6.3-10.5,23.7-27.2,23.7
		c-9.4,0-15.6-8.7-15.5-17.3c0.2-16,16.4-32.1,56.6-32.1c7.6,0,16.1,0.6,25.5,2.3c10.8,1.9,37.7,6.5,59.7,6.8c8.1,0,18.4,0.3,26.8-1
		c8.9-1.5,6.9-1.8,10.5-1.8c3.2,0,3.2,1.3,3.2,2.6c0,5.2-18.1,15-33.4,15c-22.6,0-46-10.2-58.1-13.5c0.5,0.4,0.8,1.1,0.4,2.1
		c-0.2,0.3-1.8,2.1-2.4,2.6c-3.2,2.9-14.2,10-26.1,30.1c9.7-0.5,21-2.4,21-2.4s-0.6-2.1-0.6-3.9c0.5-6.9,4.5-11.1,9.7-10.3
		c2.9,0.5,4.8,2.9,4.8,5.5c0,2.7-2.1,6.8-4.2,8.7c-1.4,1.1-3.1,2.3-5,3.2c0,1.8,2.4,3.2,4.5,3.4c-0.5,1.8-0.3,2.6-1.1,2.4
		c-4.8,0-6.8-4.7-6.8-4.7c-6.4,1.1-12.7,1.9-25.5,3.2C165.8,134.2,155.8,142.7,136.1,142.7z M357.1,134.2
		c6.9-0.3,19.7-13.5,22.7-16.8c0.6-0.8,1.8-2.3,2.4-2.3c0.6,0,1.9,0.6,1.9,1.6c0,0.6-1.5,3.1-2.6,4.5c-6.4,8.1-17.1,20.5-29.2,20.8
		c-6,0-8.2-2.4-9-7.1c-2.7,2.4-12.1,6.6-21.6,6.6c-7.9-0.2-11.1-4.8-12.7-8.5c-1.4-3.1-2.1-7.6-1-12.1c-4.4,2.3-8.4,2.6-14.2,2.4
		c-6.8-0.2-11-3.2-13.1-11.1c-7.7,14.2-8.1,14.7-16,29.5h-13.7l17.6-29.8c2.3-4,3.4-7.3,4.2-10.6c0.5-1.9-1-3.7-3.1-3.9
		c-2.3,0-6,2.3-9.5,5.6c0,0-9,9.7-15.6,19.5c-6.3,9.4-17.1,20-28.9,20c-8.5,0-16.3-4.7-17.9-13.7c0,0-0.8,2.1-8.4,6.4
		c-0.6,0.3-2.3,1.3-2.7,1c-1.5-1.3-2.3-2.9-2.4-4c0.5,0.2,1.5-0.6,4.5-3.1c6-4.5,7.3-8.1,7.3-8.1c1.5-3.1,4-7.9,5.8-11.3
		c4.8-9.7,13.2-19.5,26.9-20c2.3,0,2.9,1,3.4,1.8c1.3,1,0.8,2.9,0.8,2.9c-9.7,1.5-16.3,7.1-20.3,12.6c-2.4,3.5-5,9.4-5.5,13.5
		c-1,7.3,2.4,12.1,7.4,13.2c9.4,1.5,17.1-5.3,23.2-15.8c1.6-2.7,2.7-9.8,2.7-13.7c0-3.9-2.1-7.9-3.7-9.5c0-2.7,1.8-4.5,3.9-4.5
		c0.6,0,1.3,0,1.9,0.6c3.2,3.2,5,9.4,5,14c0,1.6,0,3.2-0.3,4.8c6.8-8.2,15.3-18.9,21.9-21c1.3-0.6,2.6-0.6,3.9-0.6
		c12.1-0.3,10.5,10.6,10.5,10.6c6.4-7.4,11-10.2,16.9-9.8c6.5,0.3,8.7,4.8,8.7,8.4c-0.2,4.2-3.2,9-8.5,9.2c-4.7,0-7.4-2.3-8.9-6.4
		c-3.1,1.1-4.5,3.2-5.2,7.4c-1,5.3,3.1,9.5,8.2,9.5c8.9,0,12.7-3.9,16-6.8c11-10.3,17.1-21.1,32.9-21c9.5,0.2,11.9,7.7,13.5,11
		l20.8-35.2H391l-34.5,61.1c-0.6,1.3-2.3,3.7-2.1,5.6C354.7,135,358.6,134.2,357.1,134.2z"/>
</g>
</svg>
