<?xml version="1.0" encoding="utf-8"?>
<!-- Generator: Adobe Illustrator 23.0.6, SVG Export Plug-In . SVG Version: 6.00 Build 0)  -->
<svg version="1.1" id="Layer_1" xmlns="http://www.w3.org/2000/svg" xmlns:xlink="http://www.w3.org/1999/xlink" x="0px" y="0px"
	 viewBox="0 0 500 163.9" style="enable-background:new 0 0 500 163.9;" xml:space="preserve">
<g>
	<path id="path2998" d="M122.9,57.9H64.6v17.3H106c-2,24.3-22.2,34.6-41.3,34.6C40.3,109.8,19,90.6,19,63.7
		c0-26.2,20.3-46.4,45.7-46.4c19.6,0,31.2,12.5,31.2,12.5L108,17.3C108,17.3,92.5,0,64.1,0C28,0,0,30.5,0,63.4
		c0,32.3,26.3,63.8,65,63.8c34,0,59-23.3,59-57.8C124,62.1,122.9,57.9,122.9,57.9L122.9,57.9z"/>
	<path id="path3000" d="M170.7,45.4c-23.9,0-41.1,18.7-41.1,40.5c0,22.2,16.6,41.2,41.4,41.2c22.4,0,40.7-17.1,40.7-40.7
		C211.7,59.3,190.4,45.4,170.7,45.4L170.7,45.4z M171,61.4c11.8,0,22.9,9.5,22.9,24.9c0,15-11.1,24.8-23,24.8
		c-13,0-23.3-10.4-23.3-24.9C147.6,72,157.7,61.4,171,61.4L171,61.4z"/>
	<path id="path3005" d="M260.1,45.4c-23.9,0-41.1,18.7-41.1,40.5c0,22.2,16.6,41.2,41.4,41.2c22.4,0,40.7-17.1,40.7-40.7
		C301.1,59.3,279.8,45.4,260.1,45.4L260.1,45.4z M260.3,61.4c11.8,0,22.9,9.5,22.9,24.9c0,15-11.1,24.8-23,24.8
		c-13,0-23.3-10.4-23.3-24.9C236.9,72,247.1,61.4,260.3,61.4L260.3,61.4z"/>
	<path id="path3007" d="M347.8,45.4c-22,0-39.2,19.2-39.2,40.8c0,24.6,20,40.9,38.9,40.9c11.7,0,17.8-4.6,22.4-9.9v8.1
		c0,14.1-8.6,22.6-21.5,22.6c-12.5,0-18.8-9.3-20.9-14.6l-15.7,6.6c5.6,11.8,16.8,24.1,36.8,24.1c21.8,0,38.5-13.8,38.5-42.6V47.9
		h-17.1v6.9C364.5,49.1,357.3,45.4,347.8,45.4L347.8,45.4z M349.4,61.4c10.8,0,21.8,9.2,21.8,24.9c0,16-11,24.8-22.1,24.8
		c-11.7,0-22.6-9.5-22.6-24.6C326.5,70.8,337.8,61.4,349.4,61.4L349.4,61.4z"/>
	<path id="path3011" d="M463.2,45.3c-20.7,0-38.1,16.5-38.1,40.8c0,25.7,19.4,41,40.1,41c17.3,0,27.9-9.5,34.2-17.9l-14.1-9.4
		c-3.7,5.7-9.8,11.3-20,11.3c-11.5,0-16.8-6.3-20.1-12.4L500,75.9l-2.8-6.7C491.9,56.2,479.5,45.3,463.2,45.3L463.2,45.3z M463.9,61
		c7.5,0,12.8,4,15.1,8.7l-36.6,15.3C440.8,73.2,452,61,463.9,61L463.9,61z"/>
	<path id="path3015" d="M398.9,124.7h18V4.2h-18V124.7z"/>
</g>
</svg>
