<?xml version="1.0" encoding="utf-8"?>
<!-- Generator: Adobe Illustrator 23.0.6, SVG Export Plug-In . SVG Version: 6.00 Build 0)  -->
<svg version="1.1" id="Layer_1" xmlns="http://www.w3.org/2000/svg" xmlns:xlink="http://www.w3.org/1999/xlink" x="0px" y="0px"
	 viewBox="0 0 500 81.2" style="enable-background:new 0 0 500 81.2;" xml:space="preserve">
<g>
	<polygon points="444,79.3 457.6,79.3 457.6,58.8 466.3,49.1 484.1,79.3 500,79.3 475.1,38.7 498.5,11.9 481.7,11.9 457.6,41.1 
		457.6,11.9 444,11.9 	"/>
	<path d="M397.6,67.1c-1.7-0.6-3.2-1.5-4.4-2.6c-1.2-1.2-2.2-2.7-2.9-4.5c-0.7-1.8-1.1-3.9-1.1-6.4V11.8h-13.5v43.9
		c0,3.8,0.7,7.2,2,10.2c1.4,3,3.3,5.6,5.7,7.8c2.4,2.1,5.3,3.8,8.7,4.9c3.4,1.2,7,1.7,11,1.7c4,0,7.6-0.6,11-1.7
		c3.4-1.2,6.2-2.8,8.7-4.9c2.4-2.1,4.3-4.7,5.7-7.8c1.4-3,2-6.4,2-10.2V11.8h-13.4v41.8c0,2.4-0.4,4.6-1.1,6.4
		c-0.7,1.8-1.7,3.3-2.9,4.5c-1.2,1.2-2.7,2.1-4.4,2.6c-1.7,0.6-3.6,0.9-5.5,0.9C401.2,67.9,399.3,67.7,397.6,67.1"/>
	<path d="M348.3,75c0.5,1,1.1,1.9,1.9,2.7c0.8,0.8,1.7,1.4,2.8,1.8c1,0.4,2.2,0.7,3.3,0.7c1.2,0,2.3-0.2,3.3-0.7
		c1-0.4,1.9-1.1,2.7-1.8c0.8-0.8,1.4-1.7,1.9-2.7c0.5-1,0.7-2.1,0.7-3.3c0-1.2-0.2-2.3-0.7-3.3c-0.5-1-1.1-1.9-1.9-2.7
		c-0.8-0.8-1.7-1.4-2.7-1.8c-1-0.5-2.1-0.7-3.3-0.7c-1.2,0-2.3,0.2-3.3,0.7c-1.1,0.5-2,1.1-2.8,1.8c-0.8,0.8-1.4,1.7-1.9,2.7
		c-0.5,1-0.7,2.1-0.7,3.3C347.6,72.9,347.9,74,348.3,75"/>
	<polygon points="326.6,79.3 345.7,11.9 330.6,11.9 317.8,62.6 317.4,62.6 304.3,11.9 289,11.9 308.1,79.3 	"/>
	<path d="M243.8,66.3c-2.3-1.1-4.1-2.7-5.7-4.6c-1.5-2-2.7-4.3-3.5-7c-0.8-2.7-1.2-5.6-1.2-8.8v-0.4c0-3.2,0.4-6.1,1.2-8.8
		c0.8-2.7,1.9-5.1,3.5-7c1.5-2,3.4-3.5,5.7-4.6c2.3-1.1,4.9-1.7,7.8-1.7c2.9,0,5.5,0.6,7.8,1.7c2.2,1.1,4.1,2.7,5.7,4.6
		c1.5,2,2.7,4.3,3.5,7c0.8,2.7,1.2,5.7,1.2,8.8v0.4c0,3.2-0.4,6.1-1.2,8.8c-0.8,2.7-1.9,5-3.5,7c-1.5,2-3.4,3.5-5.7,4.6
		c-2.2,1.1-4.8,1.7-7.8,1.7C248.7,67.9,246.1,67.4,243.8,66.3 M238.1,13.6c-4,1.8-7.3,4.3-10.1,7.4c-2.8,3.1-4.9,6.8-6.4,11
		c-1.5,4.2-2.2,8.7-2.2,13.6c0,4.9,0.7,9.4,2.2,13.6c1.5,4.2,3.6,7.9,6.4,11c2.8,3.1,6.1,5.6,10.1,7.4c4,1.8,8.5,2.7,13.5,2.7
		c5,0,9.5-0.9,13.5-2.7c4-1.8,7.4-4.3,10.1-7.4c2.8-3.1,4.9-6.8,6.4-11c1.5-4.2,2.2-8.7,2.2-13.6c0-4.8-0.7-9.4-2.2-13.6
		c-1.5-4.2-3.6-7.9-6.4-11c-2.8-3.1-6.2-5.6-10.1-7.4c-4-1.8-8.5-2.7-13.5-2.7C246.6,10.9,242.1,11.8,238.1,13.6"/>
	<path d="M163.6,45.3c0-2.9,0.4-5.6,1.1-8.3c0.7-2.7,1.8-5,3.3-7.1c1.5-2,3.4-3.7,5.6-4.9c2.3-1.2,5-1.9,8.2-1.9
		c2,0,3.8,0.3,5.5,0.8c1.6,0.5,3.1,1.2,4.4,2.1c1.3,0.9,2.4,2,3.4,3.2c1,1.2,1.8,2.6,2.5,4l12-6.7c-1.1-2.4-2.6-4.5-4.4-6.4
		c-1.8-1.9-3.9-3.6-6.3-4.9c-2.4-1.4-5-2.4-7.9-3.2c-2.9-0.7-5.9-1.1-9.1-1.1c-4.9,0-9.4,0.9-13.3,2.7c-4,1.8-7.4,4.3-10.2,7.4
		c-2.8,3.1-5,6.8-6.5,11c-1.5,4.2-2.3,8.7-2.3,13.6c0,4.9,0.7,9.4,2,13.6c1.4,4.2,3.4,7.9,6,11c2.6,3.1,5.8,5.6,9.7,7.4
		c3.8,1.8,8.2,2.7,13.1,2.7c2.1,0,4.1-0.2,6-0.7c1.9-0.4,3.6-1,5.2-1.8c1.6-0.8,3-1.7,4.2-2.8c1.3-1.1,2.3-2.3,3.2-3.6v7.9h12v-37
		h-30.5v10.4h17.3v0.7c0,1.4-0.2,3-0.7,4.7c-0.5,1.7-1.3,3.3-2.5,4.7c-1.2,1.5-2.8,2.7-4.8,3.6c-2,1-4.6,1.5-7.6,1.5
		c-3.2,0-5.9-0.6-8.2-1.9c-2.3-1.2-4.2-2.9-5.6-4.9c-1.5-2-2.6-4.4-3.3-7.1c-0.7-2.7-1.1-5.4-1.1-8.3V45.3z"/>
	<path d="M21,25.6c3,1.3,6.5-0.2,7.7-3.2c1.2-3-0.2-6.5-3.2-7.7c-3-1.2-6.5,0.2-7.7,3.3C16.5,20.9,18,24.3,21,25.6"/>
	<path d="M7.6,33.4c3,1.3,6.5-0.2,7.7-3.2c1.2-3-0.2-6.5-3.2-7.7c-3-1.2-6.5,0.2-7.7,3.3C3.1,28.7,4.6,32.2,7.6,33.4"/>
	<path d="M3.6,48.3c3,1.3,6.5-0.2,7.8-3.2c1.2-3-0.2-6.5-3.2-7.7c-3-1.2-6.5,0.2-7.7,3.3C-0.8,43.7,0.6,47.1,3.6,48.3"/>
	<path d="M35.9,30.3c3,1.3,6.5-0.2,7.7-3.2c1.2-3-0.2-6.5-3.2-7.7c-3-1.2-6.5,0.2-7.7,3.3C31.5,25.6,33,29.1,35.9,30.3"/>
	<path d="M90.2,25.6c-3,1.3-6.5-0.2-7.8-3.2c-1.2-3,0.2-6.5,3.2-7.7c3-1.2,6.5,0.2,7.7,3.3C94.6,20.9,93.2,24.3,90.2,25.6"/>
	<path d="M103.6,33.4c-3,1.3-6.5-0.2-7.7-3.2c-1.2-3,0.2-6.5,3.2-7.7c3-1.2,6.5,0.2,7.7,3.3C108,28.7,106.6,32.2,103.6,33.4"/>
	<path d="M107.5,48.3c-3,1.3-6.5-0.2-7.7-3.2c-1.2-3,0.2-6.5,3.2-7.7c3-1.2,6.5,0.2,7.7,3.3C112,43.7,110.5,47.1,107.5,48.3"/>
	<path d="M75.2,30.3c-3,1.3-6.5-0.2-7.8-3.2c-1.2-3,0.2-6.5,3.2-7.7c3-1.2,6.5,0.2,7.7,3.3C79.7,25.6,78.2,29.1,75.2,30.3"/>
	<path d="M58.7,15L58.7,15l7.5,3.9v-11l-7.5,2.4l0,0C58.5,10,58.3,9.7,58,9.5l0,0L61,0l-5.4,0l-5.4,0l3,9.5l0,0
		c-0.3,0.2-0.5,0.5-0.7,0.7l0,0l-7.5-2.4v11l7.5-3.9l0,0c0.2,0.3,0.5,0.5,0.8,0.8l-4.3,13c0,0,0,0,0,0l0,0l0,0
		c-0.2,0.6-0.3,1.3-0.3,2c0,3.5,2.6,6.4,6,6.9c0.1,0,0.1,0,0.2,0c0.3,0,0.6,0.1,0.9,0.1c0.3,0,0.6,0,0.9-0.1c0,0,0.1,0,0.1,0
		c3.4-0.5,6-3.4,6-6.9c0-0.7-0.1-1.4-0.3-2v0l0,0c0,0,0,0,0,0l-4.3-13C58.2,15.6,58.5,15.3,58.7,15"/>
	<path d="M55.6,78.5c14.2,0,27.7,1,39.7,2.7c3.4-14.3,7.5-22.5,11.8-28.4L99,50c0.8,4.1,0.9,6,0,8.6c-1.3-1.3-2.6-3.7-3.6-7.3
		l-3.9,13c2.4-1.6,4.2-2.7,6.3-2.7c-3.7,8-8.4,10.1-11.4,9.5c-3.7-0.7-5.4-3.9-4.8-6.7c0.8-3.9,4.9-5,6.8-0.4
		c3.6-7.4-2.5-9.7-6.5-7.5c6-6,6.7-11.4,1.9-17.9c-6.8,5.2-6.9,10.4-3.8,17.6c-4-4.5-10.2-2.1-7.9,5.2c2.9-4.4,6.7-1.6,6.1,2.6
		c-0.5,3.7-5.4,6.6-11.4,6.1c-8.7-0.8-9.2-6.8-9.4-11.7c2.1-0.4,6,1.6,9.2,6.2l1.2-13.8c-3.6,3.7-6.8,4.4-10.4,4.5
		c1.2-3.7,6.7-9.8,6.7-9.8h-8h0h0H47c0,0,5.5,6.1,6.7,9.8c-3.6-0.1-6.8-0.8-10.4-4.5l1.2,13.8c3.3-4.6,7.1-6.6,9.2-6.2
		c-0.2,4.9-0.7,10.9-9.4,11.7c-6,0.5-10.9-2.4-11.4-6.1c-0.6-4.2,3.2-7,6.1-2.6c2.2-7.3-4-9.8-7.9-5.2c3.1-7.2,3-12.4-3.8-17.6
		c-4.9,6.5-4.2,11.9,1.9,17.9c-3.9-2.2-10.1,0.1-6.5,7.5c1.9-4.6,5.9-3.6,6.8,0.4c0.6,2.8-1.1,6.1-4.8,6.7c-3,0.6-7.6-1.5-11.4-9.5
		c2.1,0,3.9,1.1,6.3,2.7l-3.9-13c-1,3.7-2.2,6-3.6,7.3c-0.9-2.6-0.8-4.5,0-8.6l-8.1,2.9c4.3,5.8,8.4,14,11.8,28.3
		C27.9,79.5,41.4,78.5,55.6,78.5"/>
</g>
</svg>
