<?xml version="1.0" encoding="utf-8"?>
<!-- Generator: Adobe Illustrator 23.0.6, SVG Export Plug-In . SVG Version: 6.00 Build 0)  -->
<svg version="1.1" id="Layer_1" xmlns="http://www.w3.org/2000/svg" xmlns:xlink="http://www.w3.org/1999/xlink" x="0px" y="0px"
	 viewBox="0 0 400 400" style="enable-background:new 0 0 400 400;" xml:space="preserve">
<style type="text/css">
	.st0{fill:#FFFFFF;}
</style>
<g id="Dark_Blue">
	<circle class="st0" cx="200" cy="200" r="200"/>
</g>
<g>
	<path d="M200,101.6c32,0,35.8,0.1,48.5,0.7c11.7,0.5,18.1,2.5,22.3,4.1c5.6,2.2,9.6,4.8,13.8,9c4.2,4.2,6.8,8.2,9,13.8
		c1.6,4.2,3.6,10.6,4.1,22.3c0.6,12.7,0.7,16.4,0.7,48.5s-0.1,35.8-0.7,48.5c-0.5,11.7-2.5,18.1-4.1,22.3c-2.2,5.6-4.8,9.6-9,13.8
		c-4.2,4.2-8.2,6.8-13.8,9c-4.2,1.6-10.6,3.6-22.3,4.1c-12.7,0.6-16.4,0.7-48.5,0.7s-35.8-0.1-48.5-0.7c-11.7-0.5-18.1-2.5-22.3-4.1
		c-5.6-2.2-9.6-4.8-13.8-9c-4.2-4.2-6.8-8.2-9-13.8c-1.6-4.2-3.6-10.6-4.1-22.3c-0.6-12.7-0.7-16.4-0.7-48.5s0.1-35.8,0.7-48.5
		c0.5-11.7,2.5-18.1,4.1-22.3c2.2-5.6,4.8-9.6,9-13.8c4.2-4.2,8.2-6.8,13.8-9c4.2-1.6,10.6-3.6,22.3-4.1
		C164.2,101.7,168,101.6,200,101.6 M200,80c-32.6,0-36.7,0.1-49.5,0.7s-21.5,2.6-29.1,5.6c-7.9,3.1-14.6,7.2-21.3,13.8
		c-6.7,6.7-10.8,13.4-13.8,21.3c-3,7.6-5,16.4-5.6,29.1C80.1,163.3,80,167.4,80,200s0.1,36.7,0.7,49.5c0.6,12.8,2.6,21.5,5.6,29.1
		c3.1,7.9,7.2,14.6,13.8,21.3c6.7,6.7,13.4,10.8,21.3,13.8c7.6,3,16.4,5,29.1,5.6c12.8,0.6,16.9,0.7,49.5,0.7s36.7-0.1,49.5-0.7
		c12.8-0.6,21.5-2.6,29.1-5.6c7.9-3.1,14.6-7.2,21.3-13.8c6.7-6.7,10.8-13.4,13.8-21.3c3-7.6,5-16.4,5.6-29.1
		c0.6-12.8,0.7-16.9,0.7-49.5s-0.1-36.7-0.7-49.5s-2.6-21.5-5.6-29.1c-3.1-7.9-7.2-14.6-13.8-21.3c-6.7-6.7-13.4-10.8-21.3-13.8
		c-7.6-3-16.4-5-29.1-5.6C236.7,80.1,232.6,80,200,80L200,80z"/>
	<path d="M200,138.4c-34,0-61.6,27.6-61.6,61.6s27.6,61.6,61.6,61.6s61.6-27.6,61.6-61.6S234,138.4,200,138.4z M200,240
		c-22.1,0-40-17.9-40-40s17.9-40,40-40s40,17.9,40,40S222.1,240,200,240z"/>
	<circle cx="264.1" cy="135.9" r="14.4"/>
</g>
</svg>
