<?xml version="1.0" encoding="utf-8"?>
<!-- Generator: Adobe Illustrator 23.0.6, SVG Export Plug-In . SVG Version: 6.00 Build 0)  -->
<svg version="1.1" id="Layer_1" xmlns="http://www.w3.org/2000/svg" xmlns:xlink="http://www.w3.org/1999/xlink" x="0px" y="0px"
	 viewBox="0 0 400 400" style="enable-background:new 0 0 400 400;" xml:space="preserve">
<style type="text/css">
	.st0{fill:#FFFFFF;}
</style>
<g id="Dark_Blue">
	<circle class="st0" cx="200" cy="200" r="200"/>
</g>
<path d="M137.7,307.9v-152H87.1v152H137.7L137.7,307.9z M112.4,135.1c17.6,0,28.6-11.7,28.6-26.3c-0.3-14.9-11-26.3-28.3-26.3
	c-17.3,0-28.6,11.3-28.6,26.3c0,14.6,11,26.3,27.9,26.3H112.4L112.4,135.1z M165.6,307.9h50.5V223c0-4.5,0.3-9.1,1.7-12.3
	c3.7-9.1,12-18.5,25.9-18.5c18.3,0,25.6,13.9,25.6,34.4v81.3h50.5v-87.2c0-46.7-24.9-68.4-58.2-68.4c-27.3,0-39.2,15.2-45.9,25.6
	h0.3v-22h-50.5C166.3,170.1,165.6,307.9,165.6,307.9L165.6,307.9z"/>
</svg>
