<?xml version="1.0" encoding="utf-8"?>
<!-- Generator: Adobe Illustrator 23.0.6, SVG Export Plug-In . SVG Version: 6.00 Build 0)  -->
<svg version="1.1" id="Layer_1" xmlns="http://www.w3.org/2000/svg" xmlns:xlink="http://www.w3.org/1999/xlink" x="0px" y="0px"
	 viewBox="0 0 400 400" style="enable-background:new 0 0 400 400;" xml:space="preserve">
<style type="text/css">
	.st0{fill:#FFFFFF;}
</style>
<g id="Dark_Blue">
	<circle class="st0" cx="200" cy="200" r="200"/>
</g>
<path id="Shape" d="M108.5,142.1c0.3-2.9-0.8-5.7-3-7.7l-22-26.4v-4h68.2l52.7,115.6L250.8,104h65v4l-18.8,18
	c-1.6,1.2-2.4,3.3-2.1,5.3v132.2c-0.3,2,0.5,4,2.1,5.3l18.3,18v4h-92.2v-4l19-18.4c1.9-1.9,1.9-2.4,1.9-5.3V156.1l-52.8,134.1H184
	l-61.5-134.1V246c-0.5,3.8,0.7,7.6,3.4,10.3l24.7,30v4h-70v-4l24.7-30c2.6-2.7,3.8-6.6,3.2-10.3V142.1z"/>
</svg>
