<?xml version="1.0" encoding="utf-8"?>
<!-- Generator: Adobe Illustrator 23.0.6, SVG Export Plug-In . SVG Version: 6.00 Build 0)  -->
<svg version="1.1" id="Layer_1" xmlns="http://www.w3.org/2000/svg" xmlns:xlink="http://www.w3.org/1999/xlink" x="0px" y="0px"
	 viewBox="0 0 320 65.9" style="enable-background:new 0 0 320 65.9;" xml:space="preserve">
<style type="text/css">
	.st0{fill-rule:evenodd;clip-rule:evenodd;}
</style>
<g>
	<polygon class="st0" points="117.8,0 97.3,65.9 115.5,65.9 126.9,29.3 134,29.3 147,65.9 166.2,65.9 153.3,29.3 147,29.3 176.7,0 
		156,0 127,28.7 136,0 117.8,0 	"/>
	<polygon class="st0" points="180.9,0 160.4,65.9 178.6,65.9 190,29.3 197.1,29.3 210.1,65.9 229.3,65.9 216.3,29.3 210.1,29.3 
		239.8,0 219,0 190.1,28.7 199.1,0 180.9,0 	"/>
	<polygon class="st0" points="69.3,65.9 87.5,65.9 108,0 89.8,0 69.3,65.9 	"/>
	<polygon class="st0" points="281.3,65.9 299.5,65.9 320,0 301.8,0 281.3,65.9 	"/>
	<polygon class="st0" points="223.7,65.9 271.9,65.9 275.5,54.2 245.5,54.2 250.6,37.9 278.5,37.9 282.1,26.2 254.2,26.2 
		258.9,11.2 288.7,11.2 292.4,0 244.2,0 223.7,65.9 	"/>
	<polygon class="st0" points="79.9,0 64.9,0 50.7,45.5 42,0 20.5,0 0,65.9 15.2,65.9 29.8,18 39.1,65.9 59.4,65.9 79.9,0 	"/>
	<path class="st0" d="M311.5,58.2c1.9,0,3.3,1.5,3.3,3.4c0,2-1.5,3.4-3.3,3.4c-1.9,0-3.4-1.5-3.4-3.4
		C308.2,59.6,309.7,58.2,311.5,58.2v-0.7c-2.3,0-4.2,1.7-4.2,4.1c0,2.4,1.9,4.1,4.2,4.1c2.2,0,4.2-1.7,4.2-4.1
		c0-2.4-1.9-4.1-4.2-4.1V58.2L311.5,58.2z"/>
	<path class="st0" d="M310.7,59.8h1c0.5,0,1,0.1,1,0.7c0,0.7-0.5,0.8-1.2,0.8h-0.9v0.6h0.8l1.3,2.1h0.8l-1.4-2.1
		c0.7-0.1,1.2-0.5,1.2-1.3c0-0.9-0.6-1.4-1.7-1.4H310V64h0.7V59.8L310.7,59.8z"/>
</g>
</svg>
