<?xml version="1.0" encoding="utf-8"?>
<!-- Generator: Adobe Illustrator 23.0.6, SVG Export Plug-In . SVG Version: 6.00 Build 0)  -->
<svg version="1.1" xmlns="http://www.w3.org/2000/svg" xmlns:xlink="http://www.w3.org/1999/xlink" x="0px" y="0px"
	 viewBox="0 0 500 485.7" style="enable-background:new 0 0 500 485.7;" xml:space="preserve">
<style type="text/css">
	.st0{display:none;}
	.st1{display:inline;}
	.st2{fill:#FFFFFF;}
	.st3{fill-rule:evenodd;clip-rule:evenodd;}
</style>
<g id="FreeVector.com_Background">
</g>
<g id="Visit_FreeVector.com" class="st0">
	<g class="st1">
		<path d="M23.8,543c0-1.5-1.4-2.5-2.8-2.5c-3.2,0-3.7,2.7-3.7,5.2c0,2.3,1,4.6,3.4,4.6c2,0,3-1.2,3.3-3h5.6
			c-0.5,4.7-4.2,7.4-8.8,7.4c-5.3,0-9.2-3.6-9.2-9c0-5.6,3.5-9.6,9.2-9.6c4.4,0,8.2,2.3,8.7,6.9H23.8z"/>
		<path d="M38.7,536.2c-5.4,0-9.2,4-9.2,9.3c0,5.3,3.8,9.2,9.2,9.2c5.4,0,9.2-4,9.2-9.2C47.9,540.2,44.1,536.2,38.7,536.2"/>
		<path d="M8.6,549.2c-1.5,0-2.5,1.1-2.5,2.5c0,1.4,1,2.5,2.5,2.5c1.5,0,2.5-1.1,2.5-2.5C11.2,550.3,10.1,549.2,8.6,549.2"/>
		<path d="M48.3,537.3h5.4v2.3h0.1c1-1.7,2.8-2.8,4.9-2.8c2.1,0,4.1,0.7,5,2.8c1.4-1.8,3-2.8,5.3-2.8c5.4,0,6,4.1,6,7.4v10.2h-5.6
			v-10c0-1.8-0.9-2.9-2.3-2.9c-2.4,0-2.6,1.8-2.6,4.6v8.4h-5.6v-9.7c0-2-0.6-3.3-2.1-3.3c-2,0-2.9,1.2-2.9,4.6v8.3h-5.6V537.3z"/>
		<polygon points="-65.6,554.2 -72,554.2 -77.6,537.3 -71.8,537.3 -68.7,548.5 -68.7,548.5 -65.5,537.3 -59.9,537.3 		"/>
		<path d="M-56.9,547.1c0.1,2.3,1.4,3.8,3.8,3.8c1.3,0,2.6-0.6,3.2-1.9h5.2c-1,3.9-4.6,5.6-8.4,5.6c-5.5,0-9.3-3.3-9.3-9
			c0-5.2,4.1-8.9,9.1-8.9c6.1,0,9.1,4.6,8.8,10.3H-56.9z"/>
		<path d="M-32.6,543.5c0-1.4-1.3-2.4-2.7-2.4c-3.1,0-3.6,2.6-3.6,5c0,2.2,0.9,4.4,3.3,4.4c1.9,0,2.9-1.1,3.2-2.9h5.4
			c-0.5,4.5-4,7.1-8.5,7.1c-5.1,0-8.9-3.5-8.9-8.7c0-5.4,3.4-9.2,8.9-9.2c4.2,0,8,2.2,8.3,6.7H-32.6z"/>
		<path d="M-16.5,540.9H-20v7.7c0,1.3,0.8,1.6,2,1.6c0.5,0,0.9-0.1,1.4-0.1v4.1c-1,0-2,0.2-3,0.2c-4.7,0-5.9-1.4-5.9-6v-7.5h-2.8
			v-3.6h2.8v-5.1h5.5v5.1h3.4V540.9z"/>
		<path d="M-8.9,536.8c-5.2,0-8.9,3.9-8.9,9c0,5.1,3.7,8.9,8.9,8.9s8.9-3.8,8.9-8.9C0,540.7-3.7,536.8-8.9,536.8"/>
		<path d="M-0.4,537.3H5v3h0.1c0.8-2.1,2.7-3.3,5.1-3.3c0.4,0,0.9,0,1.3,0.1v5.1c-0.7-0.2-1.4-0.3-2.1-0.3c-2.7,0-4.2,1.9-4.2,4v8.4
			h-5.5V537.3z"/>
		<path d="M-121.1,537.3h5.4v3h0.1c0.8-2.1,2.7-3.3,5.1-3.3c0.4,0,0.9,0,1.3,0.1v5.1c-0.7-0.2-1.4-0.3-2.1-0.3c-2.7,0-4.2,1.9-4.2,4
			v8.4h-5.5V537.3z"/>
		<path d="M-105.7,547.1c0.1,2.3,1.4,3.8,3.8,3.8c1.3,0,2.6-0.6,3.2-1.9h5.2c-1,3.9-4.6,5.6-8.4,5.6c-5.5,0-9.3-3.3-9.3-9
			c0-5.2,4.1-8.9,9.1-8.9c6.1,0,9.1,4.6,8.8,10.3H-105.7z"/>
		<path d="M-88.3,547.1c0.1,2.3,1.4,3.8,3.8,3.8c1.3,0,2.6-0.6,3.2-1.9h5.2c-1,3.9-4.6,5.6-8.4,5.6c-5.5,0-9.3-3.3-9.3-9
			c0-5.2,4.1-8.9,9.1-8.9c6.1,0,9.1,4.6,8.8,10.3H-88.3z"/>
		<path d="M-122.1,534.9c0.5,0,1,0,1.5,0.1V531c-0.9,0-1.8-0.1-2.7-0.1c-4.7,0-6.4,1.5-6.4,6.4h-2.7v3.6h2.7v13.3h5.5v-13.3h3.3
			v-3.6h-3.3v-0.7C-124.2,535-123.4,534.9-122.1,534.9"/>
		<path class="st2" d="M-137.9,542.7c0,6.9-5.6,12.5-12.5,12.5c-6.9,0-12.5-5.6-12.5-12.5c0-6.9,5.6-12.5,12.5-12.5
			C-143.4,530.2-137.9,535.8-137.9,542.7"/>
		<path d="M-150.4,530.1c-1.1,0-2.2,0.1-3.3,0.4c0.4,0,0.7,0.3,0.9,0.9c0,0,2.4,7.8,2.6,8.6c0.3,0.9,0.6,1.8,0.6,1.8
			c-0.2,0.2-0.4,0.4-0.5,0.6c-0.2,0.5-0.4,0.9-0.4,1.3c-0.4-0.6-1.8-2.4-2.8-3.5c0,0-0.1-0.8-0.3-1.5c-0.2-0.7-1.5-5.7-1.5-5.7
			c-0.2-0.9-0.1-1.7,0.4-2.2c-4.9,1.7-8.4,6.4-8.4,11.8c0,4.9,2.9,9.2,7.1,11.3c-0.4-0.6-0.9-1.6-1.2-3c-0.4-2.3-0.5-3.8-0.8-5.1
			c-0.4-1.7-0.3-2.1,0.3-2.9c0.3-0.4,0.6-0.6,0.9-0.7c0.3-0.1,0.6,0.1,0.7,0.2c0.7,0.8,2.2,2.3,2.3,2.5c0.3,0.4,0.4,0.9,0.1,1.5
			c-0.1,0.2-0.4,0.4-0.6,0.4c-0.5,0.1-1,0-1.2-0.1c-0.4-0.3-2.3-2.1-2.3-2c0,0.5,1.4,1.6,2.1,2.3c0.3,0.3,1,0.3,1.5,0.2
			c0.4-0.1,0.7-0.3,0.8-0.6c0.2-0.4,0.2-0.9,0.1-1.2c0.5,0.3,1,0.5,1.5,0.3c0.5-0.2,0.8-0.4,1-0.7c0,0.3,0.1,0.7,0.2,1.1
			c0.2,1.1,0.4,1.7,0.5,2.1c0,0.1,0.1,0.3,0.1,0.3c0,0,0,0,0,0c-0.3,0.4-0.7,1.1-1,1.9c-0.2,0.6-0.3,1.3-0.3,2c0,0.2,0,0.6,0.1,0.6
			c0.1,0,0.1-0.4,0.1-0.6c0.1-0.7,0.2-1.4,0.4-2c0.3-0.7,0.6-1.2,1-1.8c0,0,0,0,0,0c0.1-0.1,0-0.3-0.1-0.6c-0.1-0.4-0.3-1-0.5-2.1
			c-0.2-1.6-0.3-2.2,0.3-3.5c0.5-1,1.8-1,2-0.9c0.1,0.1,0.1,0.7,0.1,1.2c0,0.6,0,1.4,0.1,2.3c0.1,1.2,0.6,2.1,1,2.6
			c0.3,0.4,0.6,0.6,0.7,0.5c0.1-0.1-0.2-0.3-0.5-0.8c-0.3-0.5-0.7-1.3-0.8-2.4c-0.1-0.9-0.1-1.6-0.1-2.2c0-0.9,0-1.4-0.3-1.5
			c-0.1-0.1-0.5-0.1-0.8-0.1l2.3-7.9c0.4-1.4,0.8-2,1.7-1.9c0,0,0,0,0,0C-146.1,530.7-148.2,530.1-150.4,530.1 M-151.6,545.4
			c-0.6,0.2-1.4-0.3-1.8-0.6c-0.3-0.4-2.2-2.3-2.4-2.6c-0.5-0.5-0.1-1.6,1-2c0.3-0.1,0.8-0.1,1.1,0.2c1.3,1.6,2.7,3.3,2.8,3.7
			C-150.5,544.7-150.9,545.2-151.6,545.4 M-146,548.4L-146,548.4C-146,548.4-146,548.4-146,548.4C-146,548.4-146,548.4-146,548.4"/>
		<path d="M-143.6,532c0.3,0.3,0.4,0.8,0.3,1.2l-2.1,9.4c-0.1,0.7-0.3,2.2-0.1,3.3c0.3,1.4,0.8,3.3,0.4,5.4
			c-0.2,1.1-0.6,2.3-1.1,3.3c5-1.7,8.6-6.4,8.6-11.9C-137.7,538.2-140.1,534.3-143.6,532"/>
	</g>
	<g class="st1">
		<path d="M93.8,539.1h4l-5.1,14.2h-3.9l-5.1-14.2h4.2l2.9,10.5L93.8,539.1z"/>
		<path d="M103.7,537.5H100V534h3.8V537.5z M100,539.1h3.8v14.2H100V539.1z"/>
		<path d="M110.2,548.8c0.1,0.7,0.2,1.1,0.5,1.4c0.5,0.5,1.3,0.7,2.6,0.7c0.7,0,1.3-0.1,1.7-0.3c0.4-0.2,0.6-0.5,0.6-1
			c0-0.4-0.2-0.7-0.5-0.9c-0.3-0.2-1.6-0.6-3.9-1.1c-1.6-0.4-2.7-0.9-3.4-1.5c-0.7-0.6-1-1.4-1-2.5c0-1.3,0.5-2.4,1.5-3.4
			c1-0.9,2.5-1.4,4.3-1.4c1.8,0,3.2,0.4,4.3,1.1c1.1,0.7,1.8,1.9,1.9,3.7h-3.7c-0.1-0.5-0.2-0.9-0.4-1.1c-0.4-0.5-1.1-0.8-2.1-0.8
			c-0.8,0-1.4,0.1-1.7,0.4c-0.3,0.3-0.5,0.5-0.5,0.9c0,0.4,0.2,0.7,0.5,0.9c0.4,0.2,1.6,0.5,3.9,1c1.5,0.3,2.6,0.9,3.3,1.6
			c0.7,0.7,1.1,1.6,1.1,2.7c0,1.4-0.5,2.5-1.6,3.4c-1,0.9-2.7,1.3-4.8,1.3c-2.2,0-3.9-0.5-4.9-1.4c-1.1-0.9-1.6-2.1-1.6-3.6H110.2z"
			/>
		<path d="M125.9,537.5h-3.8V534h3.8V537.5z M122.2,539.1h3.8v14.2h-3.8V539.1z"/>
		<path d="M128.1,541.9v-2.6h2v-4h3.7v4h2.3v2.6h-2.3v7.5c0,0.6,0.1,0.9,0.2,1.1c0.1,0.1,0.6,0.2,1.4,0.2c0.1,0,0.2,0,0.4,0
			c0.1,0,0.3,0,0.4,0v2.8l-1.8,0.1c-1.8,0.1-3-0.2-3.6-0.9c-0.4-0.4-0.6-1.1-0.6-2v-8.7H128.1z"/>
		<path d="M151.6,534c0.2,0,0.5,0,0.8,0.1v3c-0.2,0-0.6-0.1-1-0.1c-0.5,0-0.8,0.1-1,0.3c-0.2,0.2-0.3,0.5-0.3,0.8c0,0.3,0,0.7,0,1.2
			h2.4v2.6h-2.4v11.4h-3.7v-11.4h-2.1v-2.6h2v-0.9c0-1.5,0.3-2.6,0.8-3.1c0.5-0.9,1.8-1.3,3.9-1.3C151.2,534,151.5,534,151.6,534z"
			/>
		<path d="M162.5,538.8c0,0,0.2,0,0.3,0v3.8c-0.2,0-0.4,0-0.6-0.1c-0.2,0-0.3,0-0.4,0c-1.5,0-2.5,0.5-3,1.5
			c-0.3,0.5-0.4,1.4-0.4,2.5v6.8h-3.7v-14.2h3.5v2.5c0.6-0.9,1.1-1.6,1.5-1.9c0.7-0.6,1.6-0.9,2.7-0.9
			C162.4,538.8,162.5,538.8,162.5,538.8z"/>
		<path d="M174.2,539.4c1,0.4,1.8,1.1,2.4,2.1c0.6,0.8,1,1.8,1.1,2.9c0.1,0.7,0.1,1.6,0.1,2.8h-10.3c0.1,1.4,0.5,2.4,1.5,3
			c0.6,0.4,1.2,0.5,2,0.5c0.8,0,1.5-0.2,2.1-0.7c0.3-0.2,0.5-0.6,0.8-1h3.8c-0.1,0.8-0.6,1.7-1.4,2.6c-1.3,1.4-3,2.1-5.3,2.1
			c-1.9,0-3.5-0.6-5-1.7c-1.4-1.2-2.2-3.1-2.2-5.7c0-2.5,0.6-4.3,2-5.7c1.3-1.3,3-2,5.1-2C172.1,538.8,173.2,539,174.2,539.4z
			 M168.7,542.6c-0.5,0.5-0.9,1.3-1,2.2h6.4c-0.1-1-0.4-1.7-1-2.3c-0.6-0.5-1.3-0.8-2.2-0.8C169.9,541.8,169.2,542.1,168.7,542.6z"
			/>
		<path d="M189,539.4c1,0.4,1.8,1.1,2.4,2.1c0.6,0.8,1,1.8,1.1,2.9c0.1,0.7,0.1,1.6,0.1,2.8h-10.3c0.1,1.4,0.6,2.4,1.5,3
			c0.6,0.4,1.2,0.5,2,0.5c0.8,0,1.5-0.2,2.1-0.7c0.3-0.2,0.5-0.6,0.8-1h3.8c-0.1,0.8-0.6,1.7-1.4,2.6c-1.3,1.4-3,2.1-5.3,2.1
			c-1.9,0-3.5-0.6-5-1.7c-1.4-1.2-2.2-3.1-2.2-5.7c0-2.5,0.7-4.3,2-5.7c1.3-1.3,3-2,5.1-2C186.9,538.8,188.1,539,189,539.4z
			 M183.5,542.6c-0.5,0.5-0.9,1.3-1,2.2h6.4c-0.1-1-0.4-1.7-1-2.3c-0.6-0.5-1.3-0.8-2.2-0.8C184.8,541.8,184,542.1,183.5,542.6z"/>
		<path d="M203.4,539.1h4l-5.1,14.2h-3.9l-5.1-14.2h4.2l2.9,10.5L203.4,539.1z"/>
		<path d="M218.7,539.4c1,0.4,1.8,1.1,2.4,2.1c0.6,0.8,1,1.8,1.1,2.9c0.1,0.7,0.1,1.6,0.1,2.8H212c0.1,1.4,0.6,2.4,1.5,3
			c0.6,0.4,1.2,0.5,2,0.5c0.8,0,1.5-0.2,2.1-0.7c0.3-0.2,0.5-0.6,0.8-1h3.8c-0.1,0.8-0.6,1.7-1.4,2.6c-1.3,1.4-3,2.1-5.3,2.1
			c-1.9,0-3.5-0.6-5-1.7c-1.4-1.2-2.2-3.1-2.2-5.7c0-2.5,0.6-4.3,2-5.7c1.3-1.3,3-2,5.1-2C216.6,538.8,217.7,539,218.7,539.4z
			 M213.1,542.6c-0.5,0.5-0.9,1.3-1,2.2h6.4c-0.1-1-0.4-1.7-1-2.3c-0.6-0.5-1.3-0.8-2.2-0.8C214.4,541.8,213.6,542.1,213.1,542.6z"
			/>
		<path d="M232.7,544.2c-0.1-0.5-0.2-1-0.5-1.4c-0.4-0.6-1.1-0.9-1.9-0.9c-1.3,0-2.1,0.6-2.6,1.9c-0.2,0.7-0.4,1.5-0.4,2.6
			c0,1,0.1,1.9,0.4,2.5c0.4,1.2,1.3,1.8,2.5,1.8c0.9,0,1.5-0.2,1.8-0.7c0.4-0.5,0.6-1.1,0.7-1.8h3.8c-0.1,1.1-0.5,2.2-1.2,3.2
			c-1.2,1.6-2.9,2.4-5.2,2.4c-2.3,0-4-0.7-5-2c-1.1-1.4-1.6-3.1-1.6-5.3c0-2.4,0.6-4.3,1.8-5.7c1.2-1.4,2.8-2,4.9-2
			c1.8,0,3.2,0.4,4.4,1.2c1.1,0.8,1.8,2.2,2,4.2H232.7z"/>
		<path d="M237.6,541.9v-2.6h2v-4h3.7v4h2.3v2.6h-2.3v7.5c0,0.6,0.1,0.9,0.2,1.1c0.1,0.1,0.6,0.2,1.4,0.2c0.1,0,0.2,0,0.4,0
			c0.1,0,0.2,0,0.4,0v2.8l-1.8,0.1c-1.8,0.1-3-0.2-3.6-0.9c-0.4-0.4-0.6-1.1-0.6-2v-8.7H237.6z"/>
		<path d="M259.8,551.6c-1.2,1.5-3,2.2-5.5,2.2c-2.4,0-4.3-0.7-5.4-2.2c-1.2-1.5-1.8-3.3-1.8-5.3c0-2,0.6-3.8,1.8-5.3
			c1.2-1.5,3-2.2,5.4-2.2c2.4,0,4.3,0.8,5.5,2.2c1.2,1.5,1.8,3.3,1.8,5.3C261.5,548.3,260.9,550.1,259.8,551.6z M256.8,549.5
			c0.6-0.8,0.9-1.9,0.9-3.3c0-1.4-0.3-2.5-0.9-3.3c-0.6-0.8-1.4-1.1-2.5-1.1c-1.1,0-1.9,0.4-2.5,1.1c-0.6,0.8-0.9,1.9-0.9,3.3
			c0,1.4,0.3,2.5,0.9,3.3c0.6,0.8,1.4,1.2,2.5,1.2C255.4,550.7,256.2,550.3,256.8,549.5z"/>
		<path d="M272.1,538.8c0,0,0.2,0,0.3,0v3.8c-0.2,0-0.4,0-0.6-0.1c-0.2,0-0.3,0-0.4,0c-1.5,0-2.5,0.5-3,1.5
			c-0.3,0.5-0.4,1.4-0.4,2.5v6.8h-3.7v-14.2h3.5v2.5c0.6-0.9,1.1-1.6,1.5-1.9c0.7-0.6,1.6-0.9,2.7-0.9
			C272,538.8,272,538.8,272.1,538.8z"/>
		<path d="M273,549.4h3.9v3.9H273V549.4z"/>
		<path d="M289,544.2c-0.1-0.5-0.2-1-0.5-1.4c-0.4-0.6-1.1-0.9-1.9-0.9c-1.3,0-2.1,0.6-2.6,1.9c-0.2,0.7-0.4,1.5-0.4,2.6
			c0,1,0.1,1.9,0.4,2.5c0.4,1.2,1.3,1.8,2.5,1.8c0.9,0,1.5-0.2,1.8-0.7c0.4-0.5,0.6-1.1,0.7-1.8h3.8c-0.1,1.1-0.5,2.2-1.2,3.2
			c-1.2,1.6-2.9,2.4-5.2,2.4c-2.3,0-4-0.7-5-2c-1.1-1.4-1.6-3.1-1.6-5.3c0-2.4,0.6-4.3,1.8-5.7c1.2-1.4,2.8-2,4.9-2
			c1.8,0,3.2,0.4,4.4,1.2c1.1,0.8,1.8,2.2,2,4.2H289z"/>
		<path d="M307.1,551.6c-1.2,1.5-3,2.2-5.5,2.2c-2.4,0-4.3-0.7-5.5-2.2c-1.2-1.5-1.8-3.3-1.8-5.3c0-2,0.6-3.8,1.8-5.3
			c1.2-1.5,3-2.2,5.5-2.2c2.4,0,4.3,0.8,5.5,2.2c1.2,1.5,1.8,3.3,1.8,5.3C308.9,548.3,308.3,550.1,307.1,551.6z M304.2,549.5
			c0.6-0.8,0.9-1.9,0.9-3.3c0-1.4-0.3-2.5-0.9-3.3c-0.6-0.8-1.4-1.1-2.5-1.1c-1.1,0-1.9,0.4-2.5,1.1c-0.6,0.8-0.9,1.9-0.9,3.3
			c0,1.4,0.3,2.5,0.9,3.3c0.6,0.8,1.4,1.2,2.5,1.2C302.8,550.7,303.6,550.3,304.2,549.5z"/>
		<path d="M329.2,539.2c0.6,0.2,1.2,0.7,1.7,1.3c0.4,0.5,0.7,1.1,0.8,1.8c0.1,0.5,0.1,1.2,0.1,2.1l0,8.9H328v-9c0-0.5-0.1-1-0.3-1.3
			c-0.3-0.7-0.9-1-1.8-1c-1,0-1.7,0.4-2.1,1.3c-0.2,0.5-0.3,1-0.3,1.6v8.4h-3.7v-8.4c0-0.8-0.1-1.5-0.3-1.8c-0.3-0.7-0.9-1-1.8-1
			c-1.1,0-1.8,0.3-2.1,1c-0.2,0.4-0.3,1-0.3,1.7v8.5h-3.8v-14.1h3.6v2.1c0.5-0.7,0.9-1.3,1.3-1.6c0.7-0.6,1.7-0.8,2.8-0.8
			c1.1,0,2,0.2,2.6,0.7c0.5,0.4,0.9,1,1.2,1.7c0.5-0.8,1.1-1.4,1.8-1.8c0.8-0.4,1.6-0.6,2.6-0.6C328,538.8,328.6,538.9,329.2,539.2z
			"/>
		<path d="M341.2,541.9v-2.6h2v-4h3.7v4h2.3v2.6h-2.3v7.5c0,0.6,0.1,0.9,0.2,1.1c0.1,0.1,0.6,0.2,1.4,0.2c0.1,0,0.2,0,0.4,0
			c0.1,0,0.2,0,0.4,0v2.8l-1.8,0.1c-1.8,0.1-3-0.2-3.6-0.9c-0.4-0.4-0.6-1.1-0.6-2v-8.7H341.2z"/>
		<path d="M363.3,551.6c-1.2,1.5-3,2.2-5.5,2.2c-2.4,0-4.3-0.7-5.5-2.2c-1.2-1.5-1.8-3.3-1.8-5.3c0-2,0.6-3.8,1.8-5.3
			c1.2-1.5,3-2.2,5.5-2.2c2.4,0,4.3,0.8,5.5,2.2c1.2,1.5,1.8,3.3,1.8,5.3C365.1,548.3,364.5,550.1,363.3,551.6z M360.4,549.5
			c0.6-0.8,0.9-1.9,0.9-3.3c0-1.4-0.3-2.5-0.9-3.3c-0.6-0.8-1.4-1.1-2.5-1.1c-1.1,0-1.9,0.4-2.5,1.1c-0.6,0.8-0.9,1.9-0.9,3.3
			c0,1.4,0.3,2.5,0.9,3.3c0.6,0.8,1.4,1.2,2.5,1.2C359,550.7,359.8,550.3,360.4,549.5z"/>
		<path d="M381,534c0.2,0,0.5,0,0.8,0.1v3c-0.2,0-0.6-0.1-1-0.1c-0.5,0-0.8,0.1-1,0.3c-0.2,0.2-0.3,0.5-0.3,0.8c0,0.3,0,0.7,0,1.2
			h2.4v2.6h-2.4v11.4h-3.7v-11.4h-2.1v-2.6h2v-0.9c0-1.5,0.3-2.6,0.8-3.1c0.5-0.9,1.8-1.3,3.9-1.3C380.6,534,380.8,534,381,534z"/>
		<path d="M387.8,537.5h-3.8V534h3.8V537.5z M384.1,539.1h3.8v14.2h-3.8V539.1z"/>
		<path d="M402.8,540c0.9,0.8,1.4,2,1.4,3.8v9.5h-3.8v-8.6c0-0.7-0.1-1.3-0.3-1.7c-0.4-0.7-1.1-1.1-2.1-1.1c-1.2,0-2.1,0.5-2.6,1.6
			c-0.2,0.6-0.4,1.3-0.4,2.2v7.7h-3.7v-14.1h3.6v2.1c0.5-0.7,0.9-1.3,1.3-1.6c0.8-0.6,1.7-0.9,2.9-0.9
			C400.7,538.8,401.9,539.2,402.8,540z"/>
		<path d="M415.2,539.4c0.7,0.4,1.2,0.9,1.6,1.6v-6.8h3.8v19.1H417v-2c-0.5,0.8-1.1,1.5-1.8,1.8c-0.7,0.4-1.5,0.6-2.5,0.6
			c-1.7,0-3-0.7-4.2-2c-1.1-1.3-1.7-3.1-1.7-5.2c0-2.4,0.6-4.3,1.7-5.7c1.1-1.4,2.6-2.1,4.5-2.1C413.8,538.8,414.5,539,415.2,539.4z
			 M416.1,549.5c0.5-0.8,0.8-1.8,0.8-3c0-1.7-0.4-3-1.3-3.7c-0.5-0.5-1.2-0.7-1.9-0.7c-1.1,0-1.9,0.4-2.4,1.2
			c-0.5,0.8-0.8,1.8-0.8,3c0,1.3,0.3,2.4,0.8,3.1c0.5,0.8,1.3,1.2,2.3,1.2S415.5,550.3,416.1,549.5z"/>
		<path d="M449,539.2c0.6,0.2,1.2,0.7,1.7,1.3c0.4,0.5,0.7,1.1,0.8,1.8c0.1,0.5,0.1,1.2,0.1,2.1l0,8.9h-3.8v-9c0-0.5-0.1-1-0.3-1.3
			c-0.3-0.7-0.9-1-1.8-1c-1,0-1.7,0.4-2.1,1.3c-0.2,0.5-0.3,1-0.3,1.6v8.4h-3.7v-8.4c0-0.8-0.1-1.5-0.3-1.8c-0.3-0.7-0.9-1-1.8-1
			c-1.1,0-1.8,0.3-2.1,1c-0.2,0.4-0.3,1-0.3,1.7v8.5h-3.8v-14.1h3.6v2.1c0.5-0.7,0.9-1.3,1.3-1.6c0.7-0.6,1.7-0.8,2.8-0.8
			c1.1,0,2,0.2,2.6,0.7c0.5,0.4,0.9,1,1.2,1.7c0.5-0.8,1.1-1.4,1.8-1.8c0.8-0.4,1.6-0.6,2.6-0.6C447.8,538.8,448.4,538.9,449,539.2z
			"/>
		<path d="M466.9,551.6c-1.2,1.5-3,2.2-5.5,2.2c-2.4,0-4.3-0.7-5.5-2.2c-1.2-1.5-1.8-3.3-1.8-5.3c0-2,0.6-3.8,1.8-5.3
			c1.2-1.5,3-2.2,5.5-2.2c2.4,0,4.3,0.8,5.5,2.2c1.2,1.5,1.8,3.3,1.8,5.3C468.6,548.3,468.1,550.1,466.9,551.6z M463.9,549.5
			c0.6-0.8,0.9-1.9,0.9-3.3c0-1.4-0.3-2.5-0.9-3.3c-0.6-0.8-1.4-1.1-2.5-1.1c-1.1,0-1.9,0.4-2.5,1.1c-0.6,0.8-0.9,1.9-0.9,3.3
			c0,1.4,0.3,2.5,0.9,3.3c0.6,0.8,1.4,1.2,2.5,1.2C462.5,550.7,463.3,550.3,463.9,549.5z"/>
		<path d="M479.2,538.8c0,0,0.2,0,0.3,0v3.8c-0.2,0-0.4,0-0.6-0.1c-0.2,0-0.3,0-0.4,0c-1.5,0-2.5,0.5-3,1.5
			c-0.3,0.5-0.4,1.4-0.4,2.5v6.8h-3.7v-14.2h3.5v2.5c0.6-0.9,1.1-1.6,1.5-1.9c0.7-0.6,1.6-0.9,2.7-0.9
			C479.1,538.8,479.1,538.8,479.2,538.8z"/>
		<path d="M490.9,539.4c1,0.4,1.8,1.1,2.4,2.1c0.6,0.8,1,1.8,1.1,2.9c0.1,0.7,0.1,1.6,0.1,2.8h-10.3c0.1,1.4,0.6,2.4,1.5,3
			c0.6,0.4,1.2,0.5,2,0.5c0.8,0,1.5-0.2,2.1-0.7c0.3-0.2,0.5-0.6,0.8-1h3.8c-0.1,0.8-0.6,1.7-1.4,2.6c-1.3,1.4-3,2.1-5.3,2.1
			c-1.9,0-3.5-0.6-5-1.7c-1.4-1.2-2.2-3.1-2.2-5.7c0-2.5,0.7-4.3,2-5.7c1.3-1.3,3-2,5.1-2C488.8,538.8,489.9,539,490.9,539.4z
			 M485.3,542.6c-0.5,0.5-0.9,1.3-1,2.2h6.4c-0.1-1-0.4-1.7-1-2.3c-0.6-0.5-1.3-0.8-2.2-0.8C486.6,541.8,485.8,542.1,485.3,542.6z"
			/>
		<path d="M512.6,539.1h4l-5.1,14.2h-3.9l-5.1-14.2h4.2l2.9,10.5L512.6,539.1z"/>
		<path d="M527.9,539.4c1,0.4,1.8,1.1,2.4,2.1c0.6,0.8,1,1.8,1.1,2.9c0.1,0.7,0.1,1.6,0.1,2.8h-10.3c0.1,1.4,0.6,2.4,1.5,3
			c0.6,0.4,1.2,0.5,2,0.5c0.8,0,1.5-0.2,2.1-0.7c0.3-0.2,0.5-0.6,0.8-1h3.8c-0.1,0.8-0.6,1.7-1.4,2.6c-1.3,1.4-3,2.1-5.3,2.1
			c-1.9,0-3.5-0.6-5-1.7c-1.4-1.2-2.2-3.1-2.2-5.7c0-2.5,0.7-4.3,2-5.7c1.3-1.3,3-2,5.1-2C525.8,538.8,526.9,539,527.9,539.4z
			 M522.3,542.6c-0.5,0.5-0.9,1.3-1,2.2h6.4c-0.1-1-0.4-1.7-1-2.3c-0.6-0.5-1.3-0.8-2.2-0.8C523.6,541.8,522.9,542.1,522.3,542.6z"
			/>
		<path d="M541.9,544.2c-0.1-0.5-0.2-1-0.5-1.4c-0.4-0.6-1.1-0.9-1.9-0.9c-1.3,0-2.1,0.6-2.6,1.9c-0.2,0.7-0.4,1.5-0.4,2.6
			c0,1,0.1,1.9,0.4,2.5c0.4,1.2,1.3,1.8,2.5,1.8c0.9,0,1.5-0.2,1.8-0.7c0.4-0.5,0.6-1.1,0.7-1.8h3.8c-0.1,1.1-0.5,2.2-1.2,3.2
			c-1.2,1.6-2.9,2.4-5.2,2.4c-2.3,0-4-0.7-5-2c-1.1-1.4-1.6-3.1-1.6-5.3c0-2.4,0.6-4.3,1.8-5.7c1.2-1.4,2.8-2,4.9-2
			c1.8,0,3.2,0.4,4.4,1.2c1.1,0.8,1.8,2.2,2,4.2H541.9z"/>
		<path d="M546.8,541.9v-2.6h2v-4h3.7v4h2.3v2.6h-2.3v7.5c0,0.6,0.1,0.9,0.2,1.1c0.1,0.1,0.6,0.2,1.4,0.2c0.1,0,0.2,0,0.4,0
			c0.1,0,0.3,0,0.4,0v2.8l-1.8,0.1c-1.8,0.1-3-0.2-3.6-0.9c-0.4-0.4-0.6-1.1-0.6-2v-8.7H546.8z"/>
		<path d="M569,551.6c-1.2,1.5-3,2.2-5.5,2.2s-4.3-0.7-5.5-2.2c-1.2-1.5-1.8-3.3-1.8-5.3c0-2,0.6-3.8,1.8-5.3c1.2-1.5,3-2.2,5.5-2.2
			s4.3,0.8,5.5,2.2c1.2,1.5,1.8,3.3,1.8,5.3C570.8,548.3,570.2,550.1,569,551.6z M566,549.5c0.6-0.8,0.9-1.9,0.9-3.3
			c0-1.4-0.3-2.5-0.9-3.3c-0.6-0.8-1.4-1.1-2.5-1.1c-1.1,0-1.9,0.4-2.5,1.1c-0.6,0.8-0.9,1.9-0.9,3.3c0,1.4,0.3,2.5,0.9,3.3
			c0.6,0.8,1.4,1.2,2.5,1.2C564.6,550.7,565.4,550.3,566,549.5z"/>
		<path d="M581.3,538.8c0,0,0.2,0,0.3,0v3.8c-0.2,0-0.4,0-0.6-0.1c-0.2,0-0.3,0-0.4,0c-1.5,0-2.5,0.5-3,1.5
			c-0.3,0.5-0.4,1.4-0.4,2.5v6.8h-3.7v-14.2h3.5v2.5c0.6-0.9,1.1-1.6,1.5-1.9c0.7-0.6,1.6-0.9,2.7-0.9
			C581.2,538.8,581.2,538.8,581.3,538.8z"/>
		<path d="M594.9,553.3h-3.7v-19.2h3.7V553.3z"/>
		<path d="M610.4,551.6c-1.2,1.5-3,2.2-5.5,2.2c-2.4,0-4.3-0.7-5.4-2.2c-1.2-1.5-1.8-3.3-1.8-5.3c0-2,0.6-3.8,1.8-5.3
			c1.2-1.5,3-2.2,5.4-2.2c2.4,0,4.3,0.8,5.5,2.2c1.2,1.5,1.8,3.3,1.8,5.3C612.2,548.3,611.6,550.1,610.4,551.6z M607.4,549.5
			c0.6-0.8,0.9-1.9,0.9-3.3c0-1.4-0.3-2.5-0.9-3.3c-0.6-0.8-1.4-1.1-2.5-1.1c-1.1,0-1.9,0.4-2.5,1.1c-0.6,0.8-0.9,1.9-0.9,3.3
			c0,1.4,0.3,2.5,0.9,3.3c0.6,0.8,1.4,1.2,2.5,1.2C606,550.7,606.9,550.3,607.4,549.5z"/>
		<path d="M621.8,539.1c0.9,0.4,1.6,1.1,2.2,2.1v-2.1h3.6v13.5c0,1.8-0.3,3.2-0.9,4.1c-1.1,1.6-3.1,2.4-6.1,2.4
			c-1.8,0-3.3-0.4-4.4-1.1c-1.1-0.7-1.8-1.8-1.9-3.2h4c0.1,0.4,0.3,0.7,0.5,0.9c0.4,0.3,1.1,0.5,2,0.5c1.3,0,2.2-0.4,2.7-1.3
			c0.3-0.6,0.4-1.5,0.4-2.9v-0.9c-0.4,0.6-0.7,1.1-1.1,1.4c-0.7,0.6-1.7,0.8-2.9,0.8c-1.8,0-3.3-0.6-4.4-1.9c-1.1-1.3-1.6-3-1.6-5.2
			c0-2.1,0.5-3.9,1.6-5.3c1-1.4,2.5-2.2,4.4-2.2C620.7,538.8,621.3,538.9,621.8,539.1z M623.1,549.3c0.6-0.7,0.9-1.7,0.9-3.1
			c0-1.3-0.3-2.4-0.8-3.1c-0.6-0.7-1.3-1.1-2.3-1.1c-1.3,0-2.2,0.6-2.7,1.8c-0.3,0.7-0.4,1.5-0.4,2.4c0,0.8,0.1,1.6,0.4,2.2
			c0.5,1.2,1.4,1.8,2.7,1.8C621.8,550.3,622.5,550,623.1,549.3z"/>
		<path d="M642.9,551.6c-1.2,1.5-3,2.2-5.4,2.2c-2.4,0-4.3-0.7-5.5-2.2c-1.2-1.5-1.8-3.3-1.8-5.3c0-2,0.6-3.8,1.8-5.3
			c1.2-1.5,3-2.2,5.5-2.2c2.4,0,4.3,0.8,5.4,2.2c1.2,1.5,1.8,3.3,1.8,5.3C644.7,548.3,644.1,550.1,642.9,551.6z M640,549.5
			c0.6-0.8,0.9-1.9,0.9-3.3c0-1.4-0.3-2.5-0.9-3.3c-0.6-0.8-1.4-1.1-2.5-1.1c-1.1,0-1.9,0.4-2.5,1.1c-0.6,0.8-0.9,1.9-0.9,3.3
			c0,1.4,0.3,2.5,0.9,3.3c0.6,0.8,1.4,1.2,2.5,1.2C638.5,550.7,639.4,550.3,640,549.5z"/>
		<path d="M650.2,548.8c0.1,0.7,0.2,1.1,0.5,1.4c0.5,0.5,1.3,0.7,2.6,0.7c0.7,0,1.3-0.1,1.7-0.3c0.4-0.2,0.6-0.5,0.6-1
			c0-0.4-0.2-0.7-0.5-0.9c-0.3-0.2-1.6-0.6-3.9-1.1c-1.6-0.4-2.7-0.9-3.4-1.5c-0.7-0.6-1-1.4-1-2.5c0-1.3,0.5-2.4,1.5-3.4
			c1-0.9,2.5-1.4,4.3-1.4c1.8,0,3.2,0.4,4.3,1.1c1.1,0.7,1.8,1.9,1.9,3.7h-3.7c-0.1-0.5-0.2-0.9-0.4-1.1c-0.4-0.5-1.1-0.8-2.1-0.8
			c-0.8,0-1.4,0.1-1.7,0.4c-0.3,0.3-0.5,0.5-0.5,0.9c0,0.4,0.2,0.7,0.5,0.9c0.4,0.2,1.6,0.5,3.9,1c1.5,0.3,2.6,0.9,3.3,1.6
			c0.7,0.7,1.1,1.6,1.1,2.7c0,1.4-0.5,2.5-1.6,3.4c-1,0.9-2.7,1.3-4.8,1.3c-2.2,0-3.9-0.5-4.9-1.4c-1.1-0.9-1.6-2.1-1.6-3.6H650.2z"
			/>
	</g>
	<g class="st1">
		<path d="M-163.5,565.2h2.3v9h5.5v2h-7.8V565.2z"/>
		<path d="M-145.7,575.3c-0.8,0.9-2,1.3-3.6,1.3c-1.6,0-2.8-0.4-3.6-1.3c-1.1-1.1-1.7-2.6-1.7-4.5c0-2,0.6-3.5,1.7-4.5
			c0.8-0.9,2-1.3,3.6-1.3c1.6,0,2.8,0.4,3.6,1.3c1.1,1,1.7,2.5,1.7,4.5C-144,572.7-144.6,574.2-145.7,575.3z M-147.1,573.6
			c0.5-0.7,0.8-1.6,0.8-2.9c0-1.2-0.3-2.2-0.8-2.9c-0.5-0.7-1.3-1-2.2-1c-0.9,0-1.6,0.3-2.2,1c-0.5,0.7-0.8,1.6-0.8,2.9
			c0,1.2,0.3,2.2,0.8,2.9c0.5,0.7,1.3,1,2.2,1C-148.4,574.6-147.6,574.3-147.1,573.6z"/>
		<path d="M-134.8,568.7c-0.2-0.8-0.6-1.3-1.3-1.6c-0.4-0.2-0.8-0.2-1.3-0.2c-0.9,0-1.6,0.3-2.2,1c-0.6,0.7-0.9,1.7-0.9,3
			c0,1.3,0.3,2.3,0.9,2.9c0.6,0.6,1.3,0.8,2.1,0.8c0.8,0,1.4-0.2,1.9-0.7c0.5-0.4,0.8-1,0.9-1.7h-2.6v-1.8h4.6v5.9h-1.5l-0.2-1.4
			c-0.4,0.5-0.8,0.9-1.2,1.1c-0.6,0.4-1.4,0.6-2.2,0.6c-1.5,0-2.7-0.5-3.6-1.5c-1-1-1.5-2.4-1.5-4.2c0-1.8,0.5-3.2,1.5-4.3
			c1-1.1,2.3-1.6,3.9-1.6c1.4,0,2.5,0.4,3.4,1.1c0.8,0.7,1.3,1.6,1.5,2.7H-134.8z"/>
		<path d="M-121.9,575.3c-0.8,0.9-2,1.3-3.6,1.3c-1.6,0-2.8-0.4-3.6-1.3c-1.1-1.1-1.7-2.6-1.7-4.5c0-2,0.6-3.5,1.7-4.5
			c0.8-0.9,2-1.3,3.6-1.3c1.6,0,2.8,0.4,3.6,1.3c1.1,1,1.7,2.5,1.7,4.5C-120.2,572.7-120.8,574.2-121.9,575.3z M-123.3,573.6
			c0.5-0.7,0.8-1.6,0.8-2.9c0-1.2-0.3-2.2-0.8-2.9c-0.5-0.7-1.3-1-2.2-1c-0.9,0-1.6,0.3-2.2,1c-0.5,0.7-0.8,1.6-0.8,2.9
			c0,1.2,0.3,2.2,0.8,2.9c0.5,0.7,1.3,1,2.2,1C-124.6,574.6-123.9,574.3-123.3,573.6z"/>
		<path d="M-112.1,576.2h-2.3v-11h2.3V576.2z"/>
		<path d="M-108.3,572.8c0.1,0.5,0.2,0.9,0.4,1.1c0.4,0.5,1,0.7,2,0.7c0.6,0,1-0.1,1.3-0.2c0.7-0.2,1-0.7,1-1.3
			c0-0.4-0.2-0.6-0.5-0.8c-0.3-0.2-0.8-0.4-1.5-0.5l-1.2-0.3c-1.2-0.3-2-0.5-2.4-0.8c-0.7-0.5-1.1-1.3-1.1-2.4c0-1,0.4-1.8,1.1-2.5
			c0.7-0.7,1.8-1,3.2-1c1.2,0,2.2,0.3,3,0.9c0.8,0.6,1.3,1.5,1.3,2.7h-2.2c0-0.7-0.3-1.1-0.9-1.4c-0.4-0.2-0.8-0.3-1.4-0.3
			c-0.6,0-1.1,0.1-1.5,0.4c-0.4,0.2-0.5,0.6-0.5,1c0,0.4,0.2,0.7,0.5,0.9c0.2,0.1,0.7,0.3,1.5,0.5l1.9,0.5c0.8,0.2,1.5,0.5,1.9,0.8
			c0.7,0.5,1,1.3,1,2.2c0,1-0.4,1.8-1.2,2.5c-0.8,0.7-1.9,1-3.3,1c-1.4,0-2.6-0.3-3.4-1c-0.8-0.7-1.2-1.6-1.2-2.7H-108.3z"/>
		<path d="M-87.5,565.2v2h-3.3v9.1h-2.3v-9.1h-3.3v-2H-87.5z"/>
		<path d="M-86.2,576.2v-11h2.3v4.2h4.3v-4.2h2.3v11h-2.3v-4.9h-4.3v4.9H-86.2z"/>
		<path d="M-67,567.2h-5.8v2.3h5.3v1.9h-5.3v2.8h6.1v2h-8.3v-11h8.1V567.2z"/>
		<path d="M-59.6,566.4c0.9-0.9,2-1.4,3.4-1.4c1.8,0,3.2,0.6,4,1.8c0.5,0.7,0.7,1.4,0.8,2.1h-2.3c-0.1-0.5-0.3-0.9-0.6-1.2
			c-0.4-0.5-1-0.7-1.8-0.7c-0.8,0-1.5,0.3-1.9,1c-0.5,0.7-0.7,1.6-0.7,2.9c0,1.2,0.2,2.2,0.7,2.8c0.5,0.6,1.1,0.9,1.9,0.9
			c0.8,0,1.4-0.3,1.8-0.8c0.2-0.3,0.4-0.7,0.6-1.3h2.3c-0.2,1.2-0.7,2.2-1.5,2.9c-0.8,0.8-1.8,1.1-3.1,1.1c-1.6,0-2.8-0.5-3.7-1.5
			c-0.9-1-1.3-2.4-1.3-4.2C-61.2,568.9-60.7,567.4-59.6,566.4z"/>
		<path d="M-41.2,575.3c-0.8,0.9-2,1.3-3.6,1.3c-1.6,0-2.8-0.4-3.6-1.3c-1.1-1.1-1.7-2.6-1.7-4.5c0-2,0.6-3.5,1.7-4.5
			c0.8-0.9,2-1.3,3.6-1.3c1.6,0,2.8,0.4,3.6,1.3c1.1,1,1.7,2.5,1.7,4.5C-39.5,572.7-40.1,574.2-41.2,575.3z M-42.6,573.6
			c0.5-0.7,0.8-1.6,0.8-2.9c0-1.2-0.3-2.2-0.8-2.9c-0.5-0.7-1.3-1-2.2-1c-0.9,0-1.6,0.3-2.2,1c-0.5,0.7-0.8,1.6-0.8,2.9
			c0,1.2,0.3,2.2,0.8,2.9c0.5,0.7,1.3,1,2.2,1C-43.9,574.6-43.1,574.3-42.6,573.6z"/>
		<path d="M-30.4,571.5c-0.6,0.5-1.6,0.8-2.8,0.8h-2.3v4h-2.3v-11h4.7c1.1,0,2,0.3,2.6,0.9c0.6,0.6,1,1.4,1,2.6
			C-29.4,570-29.7,570.9-30.4,571.5z M-32.1,567.5c-0.3-0.2-0.7-0.4-1.2-0.4h-2.1v3.3h2.1c0.5,0,0.9-0.1,1.2-0.4
			c0.3-0.3,0.4-0.7,0.4-1.3C-31.7,568.1-31.8,567.7-32.1,567.5z"/>
		<path d="M-21.3,565.2h2.6l-3.7,6.9v4.1h-2.3v-4.1l-3.8-6.9h2.7l2.3,4.8L-21.3,565.2z"/>
		<path d="M-10.3,565.5c0.4,0.2,0.7,0.4,1,0.8c0.2,0.3,0.4,0.6,0.6,0.9c0.1,0.3,0.2,0.7,0.2,1.2c0,0.5-0.1,1-0.4,1.5
			c-0.3,0.5-0.7,0.9-1.3,1.1c0.5,0.2,0.9,0.5,1.1,0.9c0.2,0.4,0.3,0.9,0.3,1.7v0.7c0,0.5,0,0.8,0.1,1c0.1,0.3,0.2,0.5,0.4,0.6v0.3
			h-2.5c-0.1-0.2-0.1-0.4-0.2-0.6c-0.1-0.3-0.1-0.6-0.1-0.9l0-1c0-0.7-0.1-1.2-0.4-1.4c-0.2-0.2-0.7-0.4-1.3-0.4h-2.2v4.3h-2.2v-11
			h5.3C-11.3,565.2-10.7,565.3-10.3,565.5z M-15.1,567.1v3h2.5c0.5,0,0.9-0.1,1.1-0.2c0.4-0.2,0.7-0.6,0.7-1.2
			c0-0.7-0.2-1.1-0.6-1.3c-0.2-0.1-0.6-0.2-1.1-0.2H-15.1z"/>
		<path d="M-4.2,576.2h-2.3v-11h2.3V576.2z"/>
		<path d="M5.3,568.7c-0.2-0.8-0.6-1.3-1.3-1.6c-0.4-0.2-0.8-0.2-1.3-0.2c-0.9,0-1.6,0.3-2.2,1c-0.6,0.7-0.9,1.7-0.9,3
			c0,1.3,0.3,2.3,0.9,2.9c0.6,0.6,1.3,0.8,2.1,0.8c0.8,0,1.4-0.2,1.9-0.7c0.5-0.4,0.8-1,0.9-1.7H3v-1.8h4.6v5.9H6.1l-0.2-1.4
			c-0.4,0.5-0.8,0.9-1.2,1.1c-0.6,0.4-1.4,0.6-2.2,0.6c-1.5,0-2.7-0.5-3.6-1.5c-1-1-1.5-2.4-1.5-4.2c0-1.8,0.5-3.2,1.5-4.3
			c1-1.1,2.3-1.6,3.9-1.6c1.4,0,2.5,0.4,3.4,1.1c0.8,0.7,1.3,1.6,1.5,2.7H5.3z"/>
		<path d="M9.8,576.2v-11h2.3v4.2h4.3v-4.2h2.3v11h-2.3v-4.9h-4.3v4.9H9.8z"/>
		<path d="M28.9,565.2v2h-3.3v9.1h-2.3v-9.1H20v-2H28.9z"/>
		<path d="M42.9,575.3c-0.8,0.9-2,1.3-3.6,1.3c-1.6,0-2.8-0.4-3.6-1.3c-1.1-1.1-1.7-2.6-1.7-4.5c0-2,0.6-3.5,1.7-4.5
			c0.8-0.9,2-1.3,3.6-1.3c1.6,0,2.8,0.4,3.6,1.3c1.1,1,1.7,2.5,1.7,4.5C44.6,572.7,44,574.2,42.9,575.3z M41.5,573.6
			c0.5-0.7,0.8-1.6,0.8-2.9c0-1.2-0.3-2.2-0.8-2.9c-0.5-0.7-1.3-1-2.2-1c-0.9,0-1.6,0.3-2.2,1c-0.5,0.7-0.8,1.6-0.8,2.9
			c0,1.2,0.3,2.2,0.8,2.9c0.5,0.7,1.3,1,2.2,1C40.2,574.6,41,574.3,41.5,573.6z"/>
		<path d="M46.4,565.2h7.8v1.9h-5.6v2.5h4.9v1.9h-4.9v4.6h-2.3V565.2z"/>
		<path d="M67.9,565.2v2h-3.3v9.1h-2.3v-9.1H59v-2H67.9z"/>
		<path d="M69.3,576.2v-11h2.3v4.2h4.3v-4.2h2.3v11h-2.3v-4.9h-4.3v4.9H69.3z"/>
		<path d="M88.5,567.2h-5.8v2.3H88v1.9h-5.3v2.8h6.1v2h-8.3v-11h8.1V567.2z"/>
		<path d="M101.8,565.5c0.4,0.2,0.7,0.4,1,0.8c0.2,0.3,0.4,0.6,0.6,0.9c0.1,0.3,0.2,0.7,0.2,1.2c0,0.5-0.1,1-0.4,1.5
			c-0.3,0.5-0.7,0.9-1.3,1.1c0.5,0.2,0.9,0.5,1.1,0.9c0.2,0.4,0.3,0.9,0.3,1.7v0.7c0,0.5,0,0.8,0.1,1c0.1,0.3,0.2,0.5,0.4,0.6v0.3
			h-2.5c-0.1-0.2-0.1-0.4-0.2-0.6c-0.1-0.3-0.1-0.6-0.1-0.9l0-1c0-0.7-0.1-1.2-0.4-1.4c-0.2-0.2-0.7-0.4-1.3-0.4h-2.2v4.3h-2.3v-11
			h5.3C100.8,565.2,101.4,565.3,101.8,565.5z M97.1,567.1v3h2.5c0.5,0,0.9-0.1,1.1-0.2c0.4-0.2,0.7-0.6,0.7-1.2
			c0-0.7-0.2-1.1-0.6-1.3c-0.2-0.1-0.6-0.2-1.1-0.2H97.1z"/>
		<path d="M114,567.2h-5.8v2.3h5.3v1.9h-5.3v2.8h6.1v2h-8.3v-11h8.1V567.2z"/>
		<path d="M117.7,572.8c0.1,0.5,0.2,0.9,0.4,1.1c0.4,0.5,1,0.7,2,0.7c0.6,0,1-0.1,1.3-0.2c0.7-0.2,1-0.7,1-1.3
			c0-0.4-0.2-0.6-0.5-0.8c-0.3-0.2-0.8-0.4-1.5-0.5l-1.2-0.3c-1.2-0.3-2-0.5-2.4-0.8c-0.7-0.5-1.1-1.3-1.1-2.4c0-1,0.4-1.8,1.1-2.5
			c0.7-0.7,1.8-1,3.2-1c1.2,0,2.2,0.3,3,0.9c0.8,0.6,1.3,1.5,1.3,2.7H122c0-0.7-0.3-1.1-0.9-1.4c-0.4-0.2-0.8-0.3-1.4-0.3
			c-0.6,0-1.1,0.1-1.5,0.4c-0.4,0.2-0.5,0.6-0.5,1c0,0.4,0.2,0.7,0.5,0.9c0.2,0.1,0.7,0.3,1.5,0.5l1.9,0.5c0.8,0.2,1.5,0.5,1.9,0.8
			c0.7,0.5,1,1.3,1,2.2c0,1-0.4,1.8-1.2,2.5c-0.8,0.7-1.9,1-3.3,1c-1.4,0-2.6-0.3-3.4-1c-0.8-0.7-1.2-1.6-1.2-2.7H117.7z"/>
		<path d="M133.6,571.5c-0.6,0.5-1.6,0.8-2.8,0.8h-2.3v4h-2.3v-11h4.7c1.1,0,2,0.3,2.6,0.9c0.6,0.6,1,1.4,1,2.6
			C134.6,570,134.2,570.9,133.6,571.5z M131.8,567.5c-0.3-0.2-0.7-0.4-1.2-0.4h-2.1v3.3h2.1c0.5,0,0.9-0.1,1.2-0.4
			c0.3-0.3,0.4-0.7,0.4-1.3C132.3,568.1,132.1,567.7,131.8,567.5z"/>
		<path d="M144.6,567.2h-5.8v2.3h5.3v1.9h-5.3v2.8h6.1v2h-8.3v-11h8.1V567.2z"/>
		<path d="M147.7,566.4c0.9-0.9,2-1.4,3.4-1.4c1.8,0,3.2,0.6,4,1.8c0.5,0.7,0.7,1.4,0.8,2.1h-2.3c-0.1-0.5-0.3-0.9-0.6-1.2
			c-0.4-0.5-1-0.7-1.8-0.7c-0.8,0-1.5,0.3-1.9,1c-0.5,0.7-0.7,1.6-0.7,2.9c0,1.2,0.2,2.2,0.7,2.8c0.5,0.6,1.1,0.9,1.9,0.9
			c0.8,0,1.4-0.3,1.8-0.8c0.2-0.3,0.4-0.7,0.6-1.3h2.3c-0.2,1.2-0.7,2.2-1.5,2.9c-0.8,0.8-1.8,1.1-3.1,1.1c-1.6,0-2.8-0.5-3.7-1.5
			c-0.9-1-1.3-2.4-1.3-4.2C146.1,568.9,146.6,567.4,147.7,566.4z"/>
		<path d="M165.7,565.2v2h-3.3v9.1H160v-9.1h-3.3v-2H165.7z"/>
		<path d="M169.1,576.2h-2.3v-11h2.3V576.2z"/>
		<path d="M177.7,565.2h2.4l-3.8,11h-2.2l-3.7-11h2.5l2.4,8.4L177.7,565.2z"/>
		<path d="M189.6,567.2h-5.8v2.3h5.3v1.9h-5.3v2.8h6.1v2h-8.3v-11h8.1V567.2z"/>
		<path d="M204.4,575.3c-0.8,0.9-2,1.3-3.6,1.3c-1.6,0-2.8-0.4-3.6-1.3c-1.1-1.1-1.7-2.6-1.7-4.5c0-2,0.6-3.5,1.7-4.5
			c0.8-0.9,2-1.3,3.6-1.3c1.6,0,2.8,0.4,3.6,1.3c1.1,1,1.7,2.5,1.7,4.5C206,572.7,205.5,574.2,204.4,575.3z M202.9,573.6
			c0.5-0.7,0.8-1.6,0.8-2.9c0-1.2-0.3-2.2-0.8-2.9c-0.5-0.7-1.3-1-2.2-1c-0.9,0-1.6,0.3-2.2,1c-0.5,0.7-0.8,1.6-0.8,2.9
			c0,1.2,0.3,2.2,0.8,2.9c0.5,0.7,1.3,1,2.2,1C201.7,574.6,202.4,574.3,202.9,573.6z"/>
		<path d="M209.3,565.2l1.5,6.3l0.3,1.8l0.3-1.7l1.2-6.3h2.4l1.3,6.3l0.3,1.8l0.3-1.7l1.5-6.4h2.3l-3.1,11h-2.2l-1.3-6.4l-0.4-2.1
			l-0.4,2.1l-1.3,6.4H210l-3.1-11H209.3z"/>
		<path d="M222.2,565.2h2.4l4.4,7.7v-7.7h2.1v11h-2.3l-4.5-7.8v7.8h-2.1V565.2z"/>
		<path d="M241.4,567.2h-5.8v2.3h5.3v1.9h-5.3v2.8h6.1v2h-8.3v-11h8.1V567.2z"/>
		<path d="M250.5,565.5c0.4,0.2,0.8,0.4,1,0.8c0.2,0.3,0.4,0.6,0.6,0.9c0.1,0.3,0.2,0.7,0.2,1.2c0,0.5-0.1,1-0.4,1.5
			c-0.3,0.5-0.7,0.9-1.3,1.1c0.5,0.2,0.9,0.5,1.1,0.9c0.2,0.4,0.3,0.9,0.3,1.7v0.7c0,0.5,0,0.8,0.1,1c0.1,0.3,0.2,0.5,0.4,0.6v0.3
			h-2.5c-0.1-0.2-0.1-0.4-0.2-0.6c-0.1-0.3-0.1-0.6-0.1-0.9l0-1c0-0.7-0.1-1.2-0.4-1.4c-0.2-0.2-0.7-0.4-1.3-0.4h-2.2v4.3h-2.2v-11
			h5.3C249.5,565.2,250.1,565.3,250.5,565.5z M245.8,567.1v3h2.5c0.5,0,0.9-0.1,1.1-0.2c0.4-0.2,0.7-0.6,0.7-1.2
			c0-0.7-0.2-1.1-0.6-1.3c-0.2-0.1-0.6-0.2-1.1-0.2H245.8z"/>
		<path d="M254.3,574h2.3v2.2h-2.3V574z"/>
		<path d="M263,565.2h2.3v9h5.5v2H263V565.2z"/>
		<path d="M274.4,576.2h-2.3v-11h2.3V576.2z"/>
		<path d="M277.6,566.4c0.9-0.9,2-1.4,3.4-1.4c1.8,0,3.2,0.6,4,1.8c0.5,0.7,0.7,1.4,0.8,2.1h-2.3c-0.1-0.5-0.3-0.9-0.6-1.2
			c-0.4-0.5-1-0.7-1.8-0.7c-0.8,0-1.5,0.3-1.9,1c-0.5,0.7-0.7,1.6-0.7,2.9c0,1.2,0.2,2.2,0.8,2.8c0.5,0.6,1.1,0.9,1.9,0.9
			c0.8,0,1.4-0.3,1.8-0.8c0.2-0.3,0.4-0.7,0.6-1.3h2.3c-0.2,1.2-0.7,2.2-1.5,2.9c-0.8,0.8-1.8,1.1-3.1,1.1c-1.6,0-2.8-0.5-3.7-1.5
			c-0.9-1-1.3-2.4-1.3-4.2C276.1,568.9,276.6,567.4,277.6,566.4z"/>
		<path d="M295.8,567.2h-5.8v2.3h5.3v1.9h-5.3v2.8h6.1v2h-8.3v-11h8.1V567.2z"/>
		<path d="M297.8,565.2h2.4l4.4,7.7v-7.7h2.1v11h-2.3l-4.5-7.8v7.8h-2.1V565.2z"/>
		<path d="M310.5,572.8c0.1,0.5,0.2,0.9,0.4,1.1c0.4,0.5,1,0.7,2,0.7c0.6,0,1-0.1,1.3-0.2c0.7-0.2,1-0.7,1-1.3
			c0-0.4-0.2-0.6-0.5-0.8c-0.3-0.2-0.8-0.4-1.5-0.5l-1.2-0.3c-1.2-0.3-2-0.5-2.4-0.8c-0.7-0.5-1.1-1.3-1.1-2.4c0-1,0.4-1.8,1.1-2.5
			c0.7-0.7,1.8-1,3.2-1c1.2,0,2.2,0.3,3,0.9c0.8,0.6,1.3,1.5,1.3,2.7h-2.2c0-0.7-0.3-1.1-0.9-1.4c-0.4-0.2-0.8-0.3-1.4-0.3
			c-0.6,0-1.1,0.1-1.5,0.4c-0.4,0.2-0.5,0.6-0.5,1c0,0.4,0.2,0.7,0.5,0.9c0.2,0.1,0.7,0.3,1.5,0.5l1.9,0.5c0.8,0.2,1.5,0.5,1.9,0.8
			c0.7,0.5,1,1.3,1,2.2c0,1-0.4,1.8-1.2,2.5c-0.8,0.7-1.9,1-3.3,1c-1.4,0-2.6-0.3-3.4-1c-0.8-0.7-1.2-1.6-1.2-2.7H310.5z"/>
		<path d="M327.2,567.2h-5.8v2.3h5.3v1.9h-5.3v2.8h6.1v2h-8.3v-11h8.1V567.2z"/>
		<path d="M329.8,568.4h2.3v2.2h-2.3V568.4z M329.8,574h2.3v2.2h-2.3V574z"/>
		<path d="M339.7,566.4c0.9-0.9,2-1.4,3.4-1.4c1.8,0,3.2,0.6,4,1.8c0.5,0.7,0.7,1.4,0.8,2.1h-2.3c-0.1-0.5-0.3-0.9-0.6-1.2
			c-0.4-0.5-1-0.7-1.8-0.7c-0.8,0-1.5,0.3-1.9,1c-0.5,0.7-0.7,1.6-0.7,2.9c0,1.2,0.3,2.2,0.8,2.8c0.5,0.6,1.1,0.9,1.9,0.9
			c0.8,0,1.4-0.3,1.8-0.8c0.2-0.3,0.4-0.7,0.6-1.3h2.3c-0.2,1.2-0.7,2.2-1.5,2.9c-0.8,0.8-1.8,1.1-3.1,1.1c-1.6,0-2.8-0.5-3.7-1.5
			c-0.9-1-1.3-2.4-1.3-4.2C338.1,568.9,338.6,567.4,339.7,566.4z"/>
		<path d="M350.7,566.4c0.9-0.9,2-1.4,3.4-1.4c1.8,0,3.2,0.6,4,1.8c0.5,0.7,0.7,1.4,0.8,2.1h-2.3c-0.1-0.5-0.3-0.9-0.6-1.2
			c-0.4-0.5-1-0.7-1.8-0.7c-0.8,0-1.5,0.3-1.9,1c-0.5,0.7-0.7,1.6-0.7,2.9c0,1.2,0.2,2.2,0.8,2.8c0.5,0.6,1.1,0.9,1.9,0.9
			c0.8,0,1.4-0.3,1.8-0.8c0.2-0.3,0.4-0.7,0.6-1.3h2.3c-0.2,1.2-0.7,2.2-1.5,2.9c-0.8,0.8-1.8,1.1-3.1,1.1c-1.6,0-2.8-0.5-3.7-1.5
			c-0.9-1-1.3-2.4-1.3-4.2C349.2,568.9,349.7,567.4,350.7,566.4z"/>
		<path d="M366.3,572.9c0,0.4,0.1,0.8,0.2,1.1c0.3,0.5,0.7,0.8,1.4,0.8c0.4,0,0.8-0.1,1.1-0.4c0.3-0.3,0.5-0.7,0.5-1.2
			c0-0.7-0.3-1.2-0.9-1.4c-0.3-0.1-0.8-0.2-1.5-0.2V570c0.7,0,1.2-0.1,1.4-0.2c0.5-0.2,0.7-0.6,0.7-1.3c0-0.4-0.1-0.8-0.4-1
			c-0.2-0.3-0.6-0.4-1-0.4c-0.5,0-0.9,0.2-1.1,0.5c-0.2,0.3-0.3,0.7-0.3,1.3h-2c0-0.5,0.1-1,0.3-1.5c0.2-0.4,0.4-0.8,0.8-1.2
			c0.3-0.3,0.6-0.4,1-0.6c0.4-0.1,0.9-0.2,1.4-0.2c1,0,1.9,0.3,2.5,0.8c0.6,0.5,1,1.3,1,2.2c0,0.6-0.2,1.2-0.6,1.6
			c-0.2,0.3-0.5,0.5-0.7,0.6c0.2,0,0.5,0.2,0.8,0.5c0.5,0.5,0.8,1.2,0.8,2.1c0,0.9-0.3,1.7-1,2.4c-0.6,0.7-1.6,1-2.8,1
			c-1.5,0-2.6-0.5-3.2-1.5c-0.3-0.5-0.5-1.2-0.5-2.1H366.3z"/>
		<path d="M373.2,574h2.3v2.2h-2.3V574z"/>
		<path d="M383.6,566.8c0.6,1,0.8,2.4,0.8,4.1c0,1.8-0.3,3.2-0.8,4.1c-0.6,1-1.5,1.4-2.9,1.4s-2.3-0.5-2.9-1.4
			c-0.6-1-0.8-2.3-0.8-4.1c0-1.8,0.3-3.2,0.8-4.1c0.6-1,1.5-1.5,2.9-1.5S383.1,565.8,383.6,566.8z M379.5,573.8c0.2,0.7,0.6,1,1.3,1
			c0.6,0,1-0.3,1.2-1c0.2-0.7,0.3-1.6,0.3-2.9c0-1.3-0.1-2.3-0.3-2.9c-0.2-0.6-0.6-0.9-1.2-0.9c-0.6,0-1,0.3-1.3,0.9
			c-0.2,0.6-0.3,1.6-0.3,2.9C379.2,572.2,379.3,573.1,379.5,573.8z"/>
		<path d="M390.4,565.2h2.4l4.4,7.7v-7.7h2.1v11H397l-4.5-7.8v7.8h-2.1V565.2z"/>
		<path d="M410,575.3c-0.8,0.9-2,1.3-3.6,1.3c-1.6,0-2.8-0.4-3.6-1.3c-1.1-1.1-1.7-2.6-1.7-4.5c0-2,0.6-3.5,1.7-4.5
			c0.8-0.9,2-1.3,3.6-1.3c1.6,0,2.8,0.4,3.6,1.3c1.1,1,1.7,2.5,1.7,4.5C411.6,572.7,411.1,574.2,410,575.3z M408.5,573.6
			c0.5-0.7,0.8-1.6,0.8-2.9c0-1.2-0.3-2.2-0.8-2.9c-0.5-0.7-1.3-1-2.2-1c-0.9,0-1.6,0.3-2.2,1c-0.5,0.7-0.8,1.6-0.8,2.9
			c0,1.2,0.3,2.2,0.8,2.9c0.5,0.7,1.3,1,2.2,1C407.3,574.6,408,574.3,408.5,573.6z"/>
		<path d="M413.3,565.2h2.4l4.4,7.7v-7.7h2.1v11H420l-4.5-7.8v7.8h-2.1V565.2z"/>
		<path d="M423.6,571h4.2v2h-4.2V571z"/>
		<path d="M430.6,566.4c0.9-0.9,2-1.4,3.4-1.4c1.8,0,3.2,0.6,4,1.8c0.5,0.7,0.7,1.4,0.8,2.1h-2.3c-0.1-0.5-0.3-0.9-0.6-1.2
			c-0.4-0.5-1-0.7-1.8-0.7c-0.8,0-1.5,0.3-1.9,1c-0.5,0.7-0.7,1.6-0.7,2.9c0,1.2,0.2,2.2,0.8,2.8c0.5,0.6,1.1,0.9,1.9,0.9
			c0.8,0,1.4-0.3,1.8-0.8c0.2-0.3,0.4-0.7,0.6-1.3h2.3c-0.2,1.2-0.7,2.2-1.5,2.9c-0.8,0.8-1.8,1.1-3.1,1.1c-1.6,0-2.8-0.5-3.7-1.5
			c-0.9-1-1.3-2.4-1.3-4.2C429,568.9,429.5,567.4,430.6,566.4z"/>
		<path d="M449,575.3c-0.8,0.9-2,1.3-3.6,1.3c-1.6,0-2.8-0.4-3.6-1.3c-1.1-1.1-1.7-2.6-1.7-4.5c0-2,0.6-3.5,1.7-4.5
			c0.8-0.9,2-1.3,3.6-1.3c1.6,0,2.8,0.4,3.6,1.3c1.1,1,1.7,2.5,1.7,4.5C450.7,572.7,450.1,574.2,449,575.3z M447.6,573.6
			c0.5-0.7,0.8-1.6,0.8-2.9c0-1.2-0.3-2.2-0.8-2.9c-0.5-0.7-1.3-1-2.2-1c-0.9,0-1.6,0.3-2.2,1c-0.5,0.7-0.8,1.6-0.8,2.9
			c0,1.2,0.3,2.2,0.8,2.9c0.5,0.7,1.3,1,2.2,1C446.3,574.6,447.1,574.3,447.6,573.6z"/>
		<path d="M459.7,565.2h3.3v11h-2.1v-7.4c0-0.2,0-0.5,0-0.9c0-0.4,0-0.7,0-0.9l-2.1,9.2h-2.2l-2.1-9.2c0,0.2,0,0.5,0,0.9
			c0,0.4,0,0.7,0,0.9v7.4h-2.1v-11h3.3l2,8.7L459.7,565.2z"/>
		<path d="M472.5,565.2h3.3v11h-2.1v-7.4c0-0.2,0-0.5,0-0.9c0-0.4,0-0.7,0-0.9l-2.1,9.2h-2.2l-2.1-9.2c0,0.2,0,0.5,0,0.9
			c0,0.4,0,0.7,0,0.9v7.4h-2.1v-11h3.3l2,8.7L472.5,565.2z"/>
		<path d="M486.1,567.2h-5.8v2.3h5.3v1.9h-5.3v2.8h6.1v2H478v-11h8.1V567.2z"/>
		<path d="M495.2,565.5c0.4,0.2,0.7,0.4,1,0.8c0.2,0.3,0.4,0.6,0.6,0.9c0.1,0.3,0.2,0.7,0.2,1.2c0,0.5-0.1,1-0.4,1.5
			c-0.3,0.5-0.7,0.9-1.3,1.1c0.5,0.2,0.9,0.5,1.1,0.9c0.2,0.4,0.3,0.9,0.3,1.7v0.7c0,0.5,0,0.8,0.1,1c0.1,0.3,0.2,0.5,0.4,0.6v0.3
			h-2.5c-0.1-0.2-0.1-0.4-0.2-0.6c-0.1-0.3-0.1-0.6-0.1-0.9l0-1c0-0.7-0.1-1.2-0.4-1.4c-0.2-0.2-0.7-0.4-1.3-0.4h-2.2v4.3h-2.2v-11
			h5.3C494.2,565.2,494.8,565.3,495.2,565.5z M490.4,567.1v3h2.5c0.5,0,0.9-0.1,1.1-0.2c0.4-0.2,0.7-0.6,0.7-1.2
			c0-0.7-0.2-1.1-0.6-1.3c-0.2-0.1-0.6-0.2-1.1-0.2H490.4z"/>
		<path d="M500.2,566.4c0.9-0.9,2-1.4,3.4-1.4c1.8,0,3.2,0.6,4,1.8c0.5,0.7,0.7,1.4,0.8,2.1h-2.3c-0.1-0.5-0.3-0.9-0.6-1.2
			c-0.4-0.5-1-0.7-1.8-0.7c-0.8,0-1.5,0.3-1.9,1c-0.5,0.7-0.7,1.6-0.7,2.9c0,1.2,0.2,2.2,0.8,2.8c0.5,0.6,1.1,0.9,1.9,0.9
			c0.8,0,1.4-0.3,1.8-0.8c0.2-0.3,0.4-0.7,0.6-1.3h2.3c-0.2,1.2-0.7,2.2-1.5,2.9c-0.8,0.8-1.8,1.1-3.1,1.1c-1.6,0-2.8-0.5-3.7-1.5
			c-0.9-1-1.3-2.4-1.3-4.2C498.7,568.9,499.2,567.4,500.2,566.4z"/>
		<path d="M512.3,576.2H510v-11h2.3V576.2z"/>
		<path d="M517.6,565.2h2.6l3.9,11h-2.5l-0.7-2.3h-4.1l-0.7,2.3h-2.4L517.6,565.2z M517.5,572.1h2.8l-1.4-4.3L517.5,572.1z"/>
		<path d="M525.5,565.2h2.3v9h5.5v2h-7.8V565.2z"/>
		<path d="M546.2,571.5c-0.6,0.5-1.6,0.8-2.8,0.8h-2.3v4h-2.3v-11h4.7c1.1,0,2,0.3,2.6,0.9c0.6,0.6,1,1.4,1,2.6
			C547.2,570,546.9,570.9,546.2,571.5z M544.5,567.5c-0.3-0.2-0.7-0.4-1.2-0.4h-2.1v3.3h2.1c0.5,0,0.9-0.1,1.2-0.4
			c0.3-0.3,0.4-0.7,0.4-1.3C544.9,568.1,544.7,567.7,544.5,567.5z"/>
		<path d="M557.2,567.2h-5.8v2.3h5.3v1.9h-5.3v2.8h6.1v2h-8.3v-11h8.1V567.2z"/>
		<path d="M566.3,565.5c0.4,0.2,0.8,0.4,1,0.8c0.2,0.3,0.4,0.6,0.6,0.9c0.1,0.3,0.2,0.7,0.2,1.2c0,0.5-0.1,1-0.4,1.5
			c-0.3,0.5-0.7,0.9-1.3,1.1c0.5,0.2,0.9,0.5,1.1,0.9c0.2,0.4,0.3,0.9,0.3,1.7v0.7c0,0.5,0,0.8,0.1,1c0.1,0.3,0.2,0.5,0.4,0.6v0.3
			h-2.5c-0.1-0.2-0.1-0.4-0.2-0.6c-0.1-0.3-0.1-0.6-0.1-0.9l0-1c0-0.7-0.1-1.2-0.4-1.4c-0.2-0.2-0.7-0.4-1.3-0.4h-2.2v4.3h-2.2v-11
			h5.3C565.3,565.2,565.9,565.3,566.3,565.5z M561.5,567.1v3h2.5c0.5,0,0.9-0.1,1.1-0.2c0.4-0.2,0.7-0.6,0.7-1.2
			c0-0.7-0.2-1.1-0.6-1.3c-0.2-0.1-0.6-0.2-1.1-0.2H561.5z"/>
		<path d="M571.9,572.8c0.1,0.5,0.2,0.9,0.4,1.1c0.4,0.5,1,0.7,2,0.7c0.6,0,1-0.1,1.3-0.2c0.7-0.2,1-0.7,1-1.3
			c0-0.4-0.2-0.6-0.5-0.8c-0.3-0.2-0.8-0.4-1.5-0.5l-1.2-0.3c-1.2-0.3-2-0.5-2.4-0.8c-0.7-0.5-1.1-1.3-1.1-2.4c0-1,0.4-1.8,1.1-2.5
			c0.7-0.7,1.8-1,3.2-1c1.2,0,2.2,0.3,3,0.9c0.8,0.6,1.3,1.5,1.3,2.7h-2.2c0-0.7-0.3-1.1-0.9-1.4c-0.4-0.2-0.8-0.3-1.4-0.3
			c-0.6,0-1.1,0.1-1.5,0.4c-0.4,0.2-0.5,0.6-0.5,1c0,0.4,0.2,0.7,0.5,0.9c0.2,0.1,0.7,0.3,1.5,0.5l1.9,0.5c0.8,0.2,1.5,0.5,1.9,0.8
			c0.7,0.5,1,1.3,1,2.2c0,1-0.4,1.8-1.2,2.5c-0.8,0.7-1.9,1-3.3,1c-1.4,0-2.6-0.3-3.4-1c-0.8-0.7-1.2-1.6-1.2-2.7H571.9z"/>
		<path d="M588.9,575.3c-0.8,0.9-2,1.3-3.6,1.3c-1.6,0-2.8-0.4-3.6-1.3c-1.1-1.1-1.7-2.6-1.7-4.5c0-2,0.6-3.5,1.7-4.5
			c0.8-0.9,2-1.3,3.6-1.3c1.6,0,2.8,0.4,3.6,1.3c1.1,1,1.7,2.5,1.7,4.5C590.6,572.7,590,574.2,588.9,575.3z M587.5,573.6
			c0.5-0.7,0.8-1.6,0.8-2.9c0-1.2-0.3-2.2-0.8-2.9c-0.5-0.7-1.3-1-2.2-1c-0.9,0-1.6,0.3-2.2,1c-0.5,0.7-0.8,1.6-0.8,2.9
			c0,1.2,0.3,2.2,0.8,2.9c0.5,0.7,1.3,1,2.2,1C586.2,574.6,587,574.3,587.5,573.6z"/>
		<path d="M592.3,565.2h2.4l4.4,7.7v-7.7h2.1v11h-2.3l-4.5-7.8v7.8h-2.1V565.2z"/>
		<path d="M606.5,565.2h2.6l3.9,11h-2.5l-0.7-2.3h-4.1l-0.7,2.3h-2.4L606.5,565.2z M606.4,572.1h2.8l-1.4-4.3L606.4,572.1z"/>
		<path d="M614.4,565.2h2.3v9h5.5v2h-7.8V565.2z"/>
		<path d="M627.8,565.2h2.3v6.8c0,0.8,0.1,1.3,0.3,1.7c0.3,0.6,0.9,0.9,1.8,0.9c0.9,0,1.5-0.3,1.8-0.9c0.2-0.3,0.3-0.9,0.3-1.7v-6.8
			h2.3v6.8c0,1.2-0.2,2.1-0.5,2.7c-0.7,1.2-2,1.8-3.9,1.8c-1.9,0-3.2-0.6-3.9-1.8c-0.4-0.7-0.5-1.6-0.5-2.7V565.2z"/>
		<path d="M640.5,572.8c0.1,0.5,0.2,0.9,0.4,1.1c0.4,0.5,1,0.7,2,0.7c0.6,0,1-0.1,1.3-0.2c0.7-0.2,1-0.7,1-1.3
			c0-0.4-0.2-0.6-0.5-0.8c-0.3-0.2-0.8-0.4-1.5-0.5l-1.2-0.3c-1.2-0.3-2-0.5-2.4-0.8c-0.7-0.5-1.1-1.3-1.1-2.4c0-1,0.4-1.8,1.1-2.5
			c0.7-0.7,1.8-1,3.2-1c1.2,0,2.2,0.3,3,0.9c0.8,0.6,1.3,1.5,1.3,2.7h-2.2c0-0.7-0.3-1.1-0.9-1.4c-0.4-0.2-0.8-0.3-1.4-0.3
			c-0.6,0-1.1,0.1-1.5,0.4c-0.4,0.2-0.5,0.6-0.5,1c0,0.4,0.2,0.7,0.5,0.9c0.2,0.1,0.7,0.3,1.5,0.5l1.9,0.5c0.8,0.2,1.5,0.5,1.9,0.8
			c0.7,0.5,1,1.3,1,2.2c0,1-0.4,1.8-1.2,2.5c-0.8,0.7-1.9,1-3.3,1c-1.4,0-2.6-0.3-3.4-1c-0.8-0.7-1.2-1.6-1.2-2.7H640.5z"/>
		<path d="M657.1,567.2h-5.8v2.3h5.3v1.9h-5.3v2.8h6.1v2h-8.3v-11h8.1V567.2z"/>
		<path d="M659,574h2.3v2.2H659V574z"/>
	</g>
</g>
<g id="Vector_Logo">
	<g>
		<path class="st3" d="M262.1,0c-2.4,0.2-11.4,4.4-12.6,9c5.5,4.3,13.4,6.5,20.6,10.8h-17.5c-18.7,0.2-24.4,10.1-29.8,31
			c-1.3-1.9-13-20.5-18.3-20.5c-2.9,0-15.8,5.7-24.5,7.7c5.8-6.4,13.8-13.2,19.3-19.7c-2.2-3.1-3.4-6.6-4.5-10.6
			c3.9-0.2,7.5,1.2,23.2-1.4C233.5,3.7,247.8,0.6,262.1,0L262.1,0z"/>
		<path class="st3" d="M312.7,20c6.1,6.9,11.3,16.7,17.7,24.6c7.5,9.2,16.2,16.4,22.9,25.4c-4.1-0.9-8.6-2.1-14-3.2
			c-0.9,1-0.7,1.2-0.7,4c0,2.9,1.1,10.2,1.9,23.4c-6.4-9.4-13.2-19.6-20.9-29.7c-10,1.2-20.2,2.3-31,4.4
			c4.5-8.6,15.9-20.3,15.9-23.2c0-6.3-22.7-19.7-26.2-24.3c10.9,2,21.3,4.3,31.2,8.9C311.5,27.7,312.5,22.3,312.7,20L312.7,20z"/>
		<path class="st3" d="M168.4,25.8c-2.1,5.3-4.4,11-6.7,15.1c3.1,0.8,7.5,0.8,12.6,1.2c-16.6,9.2-25.5,27.4-23.1,41.7
			c-4.1-3.5-6.5-7-8.3-10.2c-3,3.3-6.3,7.7-10.4,13.7C135.2,66.4,145.5,44.2,168.4,25.8L168.4,25.8z"/>
		<path class="st3" d="M223.8,53.1c7.5,9.3,14.3,19.6,22,28.5l38-10.1c-5.7,9.8-21.6,29.4-21.6,32.3s17,20.1,26.2,29.9
			c-14.3-0.8-28-4.3-41.4-7.7c-6.6,10.1-13.4,20.3-20.9,30.8c-2.7-11.9-3.9-24.5-5.4-36.8c-8.4-5.7-21.8-9.2-32.8-14
			c10.6-6.2,22-10.8,31.6-16.3C221.1,78.7,222.2,66.2,223.8,53.1L223.8,53.1z"/>
		<path class="st3" d="M151,88.5c4.5,28.3-0.8,19.4,17.2,19.6h13c-7,6.5-21.7,21.5-21.7,24.3c0,2.9,6.8,14.7,8.9,23.3
			c-6.3-3.4-14.6-9-17.5-9c-4.3,0-7.6,13.5-10.4,16c-5.6-14.1,2.7-27.5-11.9-41.6C140.5,108.9,143.4,100.6,151,88.5L151,88.5z"/>
		<path class="st3" d="M342.7,102.2c1.6,8.5,1.6,17.6,2.7,26.6l1.9,2c3-2.2,7.5-5.6,12.7-9.1c-2.1,12.3-8.7,18.8-13.6,29.4
			c-3.1,6.8-4.4,17.7-7,25.2c-3.9-1.1-6.3-4.6-9.4-6.8c-8.8,4.5-19.1,7.9-28.9,12.4c4.5-7.5,7.9-15.5,12.4-22
			c-6.7-7.7-15.9-14.5-21.6-23.1c5.1-0.3,13.1,0.8,15.9,0.8C334,137.5,328.8,133.6,342.7,102.2L342.7,102.2z"/>
		<path class="st3" d="M224.1,160.4c0.3,6.2-1.9,27.3-1.9,30.2c0,8.7,16.8,13.6,20.5,14.9c-6.3,0.5-13.1,1.7-19.6,1.5
			c0.2,0.7-1,0.2-1,3s1.1,9,2.1,14.1c-8-4.2-19.3-13.8-30.3-19.1c-7.7-3.6-24.1-6.5-31.1-13.5c7.3-1.5,14.1-2.7,20.6-4.6
			c-3.4-7.5-8-15.6-10.1-24.2c8.7,5.7,16.6,11.4,24.4,17C204.4,176.7,214.7,168.6,224.1,160.4L224.1,160.4z"/>
		<path class="st3" d="M298.5,185.5v17.4c1.2,1,0.8,0.8,3.6,0.8s12.9-4.5,20.5-6.6c-23.3,19.1-50,28.9-75.2,30.1
			c2.6-1.8,8.2-5.2,13.7-8.2c-3.3-4.1-9-7.5-12.5-11.7h30C285.1,200.5,292,192.5,298.5,185.5L298.5,185.5z"/>
		<path class="st3" d="M42.1,367.4l-0.7-9.9c-4.3-2.4-10.2-4.2-15.8-4.2C10.9,353.3,0,363,0,379.9c0,16.5,10.4,25.6,25.5,25.6
			c4.7,0,11.8-1,17.9-4.7l0.7-11.5h-2.3C40.2,395.3,34.5,401,27,401c-5.6,0-14.5-3.1-14.5-20.4c0-16.8,7.7-23,14.8-23
			c4.2,0,9.1,2.2,12.4,9.8H42.1L42.1,367.4z"/>
		<path class="st3" d="M61.3,396.9c0,3.1-1.5,3.8-4.2,3.8h-1v3.6h21.9v-3.6h-0.9c-2.9,0-4.2-0.7-4.2-3.8v-18.1h18.8v18.1
			c0,1.8,0,3.8-4.1,3.8h-1v3.6h21.9v-3.6h-0.9c-4.2,0-4.2-2-4.2-3.8v-35.2c0-2.1-0.1-4,5.1-3.8v-3.6H86.6v3.6h1c4.1,0,4.1,2,4.1,3.8
			v12.7H73v-12.7c0-3.1,1.2-3.8,4.2-3.8h0.9v-3.6H56.2v3.6h1c2.7,0,4.2,0.7,4.2,3.6V396.9L61.3,396.9z"/>
		<path class="st3" d="M145.8,353.3h-3c-4,3.4-5.5,4.1-9.9,4.3v2.3h0.8c2.5,0,2.6,0.9,2.6,1.7c0,1-0.4,1.9-0.9,3.1l-11.3,29.9
			c-1.1,2.9-1.5,5.8-7.4,6.1v3.6h14.7v-3.6h-1.8c-0.7,0-1.6-0.1-1.8-0.6c-0.1-0.1,0-0.4,0-0.5c0.1-0.6,0.7-2.3,0.8-2.6l2.8-7.8h17.7
			l3.1,8.9c0.4,1,0.4,1.3,0.4,1.4c0,0.1,0,0.4,0,0.5c-0.1,0.8-0.7,0.7-1.2,0.7h-2.4v3.6h19v-3.6c-0.5,0-1.5,0-2-0.1
			c-3.1-0.6-4.7-5.5-5.4-7.3L145.8,353.3L145.8,353.3z M139.8,366.6h0.9l6.6,18.2h-14.2L139.8,366.6L139.8,366.6z"/>
		<path class="st3" d="M197.5,354.3h-17.7v3.6h1.2c3.4,0,4.2,0.9,4.2,1.8c0,0.8-0.4,3.2-0.6,4.7l-4.4,30.9c-0.4,3-1,5.3-4.9,5.3
			h-1.8v3.6h15.6v-3.6h-2c-2,0-2.9-0.6-2.9-2.3c0-0.3,0.1-0.6,0.1-1.2c0-0.2,0.1-0.4,0.1-0.5c0.1-0.4,0.1-0.9,0.1-1.3l4.1-29.1h0.7
			l12,37.1h5.4l12.3-37.1h0.8l4.7,31.9c0.1,0.7,0.2,1.5-0.4,2.1c-0.4,0.4-1.5,0.5-3.7,0.4v3.6h21v-3.6c-0.4,0-0.7,0-1,0
			c-2,0-3.9,0.5-4.6-4.5l-5.2-35.3c-0.1-1.2-0.3-3,2.5-3h1.8v-3.6H219l-10.7,31.8h-0.7L197.5,354.3L197.5,354.3z"/>
		<path class="st3" d="M267.9,385.4h4.3c18.8,0,23.1-7.7,23.1-15c0-7-5.3-16.8-22.1-16.1h-22.6v3.6h1.4c2.7,0,4.2,0.7,4.2,3.8v35.2
			c0,3.1-1.5,3.8-4.2,3.8h-1.4v3.6h23.9v-3.6h-2.5c-2.9,0-4.2-0.7-4.2-3.8V385.4L267.9,385.4z M267.9,381v-18.5c0-3,1.1-3.8,4.5-3.8
			c4.2,0,10.4,1.7,10.4,10.9c0,5.3-2.7,11.4-12.2,11.4H267.9L267.9,381z"/>
		<path class="st3" d="M305.7,400.7v3.6h22.9v-3.6h-1.5c-4.2,0-4.2-2-4.2-3.8v-35.2c0-1.8-0.1-3.8,4.2-3.8h1.5v-3.6h-22.8v3.6h1.5
			c4.1,0,4.1,2,4.1,3.8v35.2c0,1.8,0,3.8-4.1,3.8H305.7L305.7,400.7z"/>
		<path class="st3" d="M365.1,405.4c14.6,0,25-10.2,25-26.1c0-16-10.4-26.1-25-26.1c-13.1,0-25,8.7-25,26.1
			C340.1,395.1,350.6,405.4,365.1,405.4L365.1,405.4z M365.1,401c-4.5,0-12.4-2-12.4-21.7c0-17.2,6.1-21.7,12.4-21.7
			c11.9,0,12.5,15.5,12.5,21.7C377.5,399,369.6,401,365.1,401L365.1,401z"/>
		<path class="st3" d="M401.7,354.4v3.6h1.5c1.9,0,4.2-0.1,4.2,3.7v35.2c0,2.9-1,3.8-4.2,3.8h-1.5v3.6h15.8v-3.6h-1.5
			c-4.2,0-4.2-2-4.2-3.8v-27.8l0.9,0.1l25.5,36.2h7.3v-43.7c0-2.1,0.1-3.7,4.2-3.7h1.5v-3.6h-15.8v3.6h1.5c2,0,4.2,0.1,4.2,3.7v26
			h-0.8L417,354.4H401.7L401.7,354.4z"/>
		<path class="st3" d="M495.5,366.5l-0.7-9.5c-3.6-2-9.9-3.7-14.6-3.7c-12.3,0-16.9,7.4-16.9,14.2c0,7.7,5,11.4,10.2,14.3
			c9.2,5.3,15.5,7.5,15.5,12.9c0,4.8-4,6.4-7.7,6.4c-4.7,0-12-2.9-15.8-9.7h-2.3l1.3,10.6c6.7,2.5,11.8,3.5,16.5,3.5
			c10.8,0,19-6.2,19-14.7c0-6.9-4-10.9-14.2-16.7c-5-2.8-12.2-5-12.2-10.5c0-2.1,1.4-5.8,6-5.8c4.4,0,10.9,2.6,13.6,8.8H495.5
			L495.5,366.5z"/>
		<path class="st3" d="M126.6,428.2v2.7h1c2,0,3.1,0.5,3.1,2.9v25.7c0,2.6-0.4,3.6-3.1,3.6h-1v2.7h31.2l1.6-8.8h-1.8
			c-3.1,4.6-7.4,5.5-10.2,5.5h-5c-2.2,0-2.8-0.8-2.8-2.8v-25.8c0-2.4,0.9-2.9,3.1-2.9h1.1v-2.7H126.6L126.6,428.2z"/>
		<path class="st3" d="M194.8,428.2H166v2.7h1.2c2.9,0,3.1,1.3,3.1,2.8v26.4c0,1.4,0,2.8-3.1,2.8H166v2.7h30.6l1.9-9.3h-1.8
			c-3,5.6-7.2,6-10,6h-4.7c-2.2,0-3.1-0.6-3.1-2.8v-12.4h5.9c2.6,0,4.7,0.2,4.9,3.6h1.7v-10.5h-1.7c-0.3,3.9-3,3.6-7,3.6H179v-9.6
			c0-2.2,0.7-2.8,3.1-2.8h4c2.1,0,6.5,0.6,8.6,5.8h1.8L194.8,428.2L194.8,428.2z"/>
		<path class="st3" d="M225.5,427.4h-2.2c-3,2.5-4.2,3.1-7.4,3.2v1.7h0.6c1.9,0,2,0.7,2,1.3c0,0.8-0.3,1.4-0.7,2.4l-8.5,22.4
			c-0.8,2.2-1.1,4.3-5.6,4.5v2.7h11.1V463h-1.4c-0.5,0-1.2-0.1-1.4-0.4c-0.1-0.1,0-0.3,0-0.4c0.1-0.4,0.5-1.8,0.6-2l2.1-5.9H228
			l2.4,6.7c0.3,0.8,0.3,1,0.3,1c0,0.1,0,0.3,0,0.4c-0.1,0.6-0.5,0.6-0.9,0.6H228v2.7h14.2V463c-0.4,0-1.2,0-1.5-0.1
			c-2.4-0.4-3.6-4.1-4-5.5L225.5,427.4L225.5,427.4z M221,437.4h0.7l5,13.6H216L221,437.4L221,437.4z"/>
		<path class="st3" d="M278.6,438.5v-7.4c-4.7-2.8-8.8-3.7-13.4-3.7c-11.9,0-17.7,10.4-17.7,20c0,12.1,8.1,19.1,18.1,19.1
			c6.1,0,13-2.1,17-5.7c-2.4-0.3-2.5-2.6-2.5-3.9v-7c0-2.4,0.9-2.8,3.1-2.8h1.1v-2.7H269v2.7h1.2c2.1,0,3.1,0.5,3.1,2.8v6.9
			c0,5.4-3.7,6.5-6.7,6.5c-9,0-9.5-12-9.5-15.7c0-13.7,7.1-16.8,10.8-16.8c3.7,0,7.6,2.7,9.1,7.8H278.6L278.6,438.5z"/>
		<path class="st3" d="M297.2,454.9c0,10.4,10.8,11.6,16.8,11.6c9.7,0,13.8-3.8,13.8-14.2v-18.5c0-2.4,0.9-2.9,3.1-2.9h1.1v-2.7
			h-11.6v2.7c3.3,0.1,4.1,0.5,4.1,2.9v18.1c0,8.2-2.4,11.3-9.7,11.3c-8.2,0-8.8-6.5-8.8-9.6v-19.9c0-2.4,0.9-2.9,3.1-2.9h1.1v-2.7
			H293v2.7h1c2,0,3.1,0.5,3.1,2.9V454.9L297.2,454.9z"/>
		<path class="st3" d="M369.5,428.2h-28.8v2.7h1.2c2.9,0,3.1,1.3,3.1,2.8v26.4c0,1.4,0,2.8-3.1,2.8h-1.2v2.7h30.6l1.9-9.3h-1.8
			c-3,5.6-7.2,6-10,6h-4.7c-2.2,0-3.1-0.6-3.1-2.8v-12.4h5.9c2.6,0,4.6,0.2,4.9,3.6h1.8v-10.5h-1.8c-0.3,3.9-3,3.6-7,3.6h-3.7v-9.6
			c0-2.2,0.7-2.8,3.1-2.8h4c2.1,0,6.5,0.6,8.6,5.8h1.8L369.5,428.2L369.5,428.2z"/>
		<path class="st3" d="M376.3,477.1c0,4.7,3.9,8.6,8.6,8.6c4.8,0,8.6-3.9,8.6-8.6c0-4.8-3.8-8.6-8.6-8.6
			C380.3,468.5,376.3,472.3,376.3,477.1L376.3,477.1z M377.6,477.1c0-4.1,3.3-7.3,7.3-7.3c4,0,7.3,3.3,7.3,7.3c0,4-3.2,7.3-7.3,7.3
			C380.9,484.4,377.6,481.2,377.6,477.1L377.6,477.1z M381.3,472.5v0.3c0.8,0.3,1.1,0.3,1.1,1.3v6c0,1-0.5,1.2-0.8,1.2h-0.2v0.3h3
			v-0.3h-0.2c-0.3,0-0.8-0.2-0.8-1.2v-2.3c0.3,0,0.6,0.1,1,0.1c0.3,0,0.5,0,0.8,0l1.7,2.7c0.1,0.2,0.2,0.3,0.2,0.4
			c0,0.3-0.3,0.3-0.6,0.3h-0.2v0.3h2.9v-0.3c-0.5,0-0.9-0.2-1.2-0.7l-1.7-3c1.2-0.2,2-1.3,2-2.5c0-2.5-2.2-2.7-2.7-2.7H381.3
			L381.3,472.5z M383.3,474c0-0.5,0.1-0.9,0.7-0.9h0.8c0.4,0,2.2,0,2.2,2.1c0,1.3-0.9,2.2-2.4,2.2c-0.4,0-0.9,0-1.3-0.1V474
			L383.3,474z"/>
		<path d="M189.9,337.1l-0.8-0.8c0.2-0.2,22.7-22.7,56-21.7c17.9,0.5,30.9,6.4,38.6,11.3c8.4,5.2,12.5,10.3,12.7,10.5l-0.9,0.7
			c-0.2-0.2-16.7-20.3-50.5-21.3C212.2,314.8,190.1,336.9,189.9,337.1z M327,299.6c-0.4-0.3-35.9-31.3-81.9-32.3
			c-51.7-1.2-87.3,31.9-87.6,32.3l-0.8-0.8c0.4-0.3,36.2-33.7,88.4-32.6c46.4,1,82.3,32.2,82.6,32.6L327,299.6z"/>
		<path class="st3" d="M166.8,310.8l8.9,10.7c1.6,1.9,6,6.8,13.3,0.7c7.2-6,3-11.5,1.6-13.2l-8.9-10.7l-4,3.4l8.4,10
			c2.5,2.9,2.7,5.1,0.2,7.2c-2.5,2.1-4.6,1.4-7-1.5l-8.4-10L166.8,310.8L166.8,310.8z"/>
		<polygon class="st3" points="215.8,293.7 214.5,289.3 226.4,285.7 225.1,281.5 208.2,286.7 214.7,308.1 231.9,302.9 230.7,298.7 
			218.5,302.4 217,297.6 227.5,294.4 226.3,290.5 215.8,293.7 		"/>
		<polygon class="st3" points="257.2,290.9 257.7,285.8 268.6,286.9 269.1,282.6 252.9,280.9 250.6,303.2 255.8,303.7 256.7,295.2 
			265.9,296.2 266.4,291.8 257.2,290.9 		"/>
		<path class="st3" d="M299.1,293.7l-17.9,15.8l4.9,2.6l3.2-3l7.2,3.8l-0.7,4.4l4.9,2.6l3.1-23.7L299.1,293.7L299.1,293.7z
			 M292.1,306.3l6.6-6.2l-1.5,8.9L292.1,306.3L292.1,306.3z"/>
	</g>
</g>
</svg>
